<?xml version="1.0" standalone="no"?>
<!DOCTYPE svg PUBLIC "-//W3C//DTD SVG 1.1//EN" "http://www.w3.org/Graphics/SVG/1.1/DTD/svg11.dtd" >
<svg xmlns="http://www.w3.org/2000/svg" xmlns:xlink="http://www.w3.org/1999/xlink" version="1.1">
<metadata>
Created by FontForge 20161003 at Mon May  1 11:44:13 2017
 By www-data
Copyright (c) 1990, 1999, 2002 Adobe Systems Incorporated.  All Rights Reserved. (c) 1981, 1999, 2002 Heidelberger Druckmaschinen AG. All rights reserved.
</metadata>
<defs>
<font id="UniversLTStdBlackEx" horiz-adv-x="370" >
  <font-face 
    font-family="UniversLTStdBlackEx"
    font-weight="850"
    font-stretch="expanded"
    units-per-em="1000"
    panose-1="2 11 9 7 3 5 2 3 2 4"
    ascent="724"
    descent="-276"
    x-height="502"
    cap-height="722"
    bbox="-165 -211 1320 939"
    underline-thickness="50"
    underline-position="-150"
    unicode-range="U+0020-FB02"
  />
<missing-glyph horiz-adv-x="500" 
d="M0 0v700h500v-700h-500zM250 395l170 255h-340zM280 350l170 -255v510zM80 50h340l-170 255zM50 605v-510l170 255z" />
    <glyph glyph-name="fi" unicode="fi" horiz-adv-x="889" 
d="M608 0v502h192v-502h-192zM599 582v140h210v-140h-210zM139 0v380h-116v122h116q0 72 16 117t52.5 69t83 32t121.5 8q42 0 84 -6v-114q-30 4 -52 4q-60 0 -85 -22t-25 -88h151v-122h-154v-380h-192z" />
    <glyph glyph-name="fl" unicode="fl" horiz-adv-x="889" 
d="M608 0v722h192v-722h-192zM139 0v380h-116v122h116q0 72 16 117t52.5 69t83 32t121.5 8q42 0 84 -6v-114q-30 4 -52 4q-60 0 -85 -22t-25 -88h151v-122h-154v-380h-192z" />
    <glyph glyph-name=".notdef" horiz-adv-x="500" 
d="M0 0v700h500v-700h-500zM250 395l170 255h-340zM280 350l170 -255v510zM80 50h340l-170 255zM50 605v-510l170 255z" />
    <glyph glyph-name=".null" horiz-adv-x="0" 
 />
    <glyph glyph-name="nonmarkingreturn" horiz-adv-x="333" 
 />
    <glyph glyph-name="space" unicode=" " 
 />
    <glyph glyph-name="exclam" unicode="!" horiz-adv-x="520" 
d="M167 0v154h186v-154h-186zM371 722l-32 -509h-158l-32 509h222z" />
    <glyph glyph-name="quotedbl" unicode="&#x22;" horiz-adv-x="667" 
d="M365 482v240h122v-240h-122zM180 482v240h122v-240h-122z" />
    <glyph glyph-name="numbersign" unicode="#" horiz-adv-x="740" 
d="M398 303l13 92h-69l-13 -92h69zM119 187v116h88l13 92h-72v116h88l26 187h122l-26 -187h69l26 187h122l-26 -187h72v-116h-88l-13 -92h72v-116h-88l-26 -187h-122l26 187h-69l-26 -187h-122l26 187h-72z" />
    <glyph glyph-name="dollar" unicode="$" horiz-adv-x="740" 
d="M402 272v-151q110 8 110 76q0 31 -26.5 47.5t-83.5 27.5zM330 465v136q-87 -14 -87 -71q0 -45 87 -65zM330 -97v78q-96 3 -160.5 24.5t-96 59.5t-43.5 77.5t-12 91.5h210q1 -57 24.5 -82.5t77.5 -30.5v166l-53 10q-51 10 -89.5 23t-76 36t-58 60t-20.5 86q0 60 24.5 106
t67 73.5t94 42t111.5 17.5v69h72v-69q166 -6 233 -61t72 -164h-204q-7 78 -101 85v-152l81 -17q55 -11 94 -25t74 -37.5t53 -61t18 -89.5q0 -221 -320 -238v-78h-72z" />
    <glyph glyph-name="percent" unicode="%" horiz-adv-x="1185" 
d="M86 527q0 93 55 141.5t156 48.5t156 -48.5t55 -141.5q0 -190 -211 -190t-211 190zM220 527q0 -47 18 -78.5t59 -31.5t59 31.5t18 77.5q0 47 -18 79t-59 32t-59 -31.5t-18 -78.5zM677 171q0 93 55 141.5t156 48.5t156 -48.5t55 -141.5q0 -190 -211 -190t-211 190zM811 171
q0 -47 18 -78.5t59 -31.5t59 31.5t18 77.5q0 47 -18 79t-59 32t-59 -31.5t-18 -78.5zM262 -24l546 746h116l-546 -746h-116z" />
    <glyph glyph-name="ampersand" unicode="&#x26;" horiz-adv-x="1037" 
d="M350 551q0 -45 72 -95q41 20 65 41.5t24 53.5t-24 47t-62 15q-37 0 -56 -17.5t-19 -44.5zM741 0l-50 48q-101 -67 -292 -67q-93 0 -163 20t-107 53t-54.5 67.5t-17.5 70.5q0 81 45 127t150 78q-94 70 -94 164q0 82 73.5 131t199.5 49q117 0 183.5 -52t66.5 -125
q0 -110 -144 -185l160 -120q29 29 50.5 82t24.5 103h186q-3 -82 -39 -166.5t-94 -123.5l194 -154h-278zM565 146l-197 158q-107 -36 -107 -101q0 -43 43 -65.5t109 -22.5q75 0 152 31z" />
    <glyph glyph-name="quotesingle" unicode="'" 
d="M124 482v240h122v-240h-122z" />
    <glyph glyph-name="parenleft" unicode="(" horiz-adv-x="444" 
d="M243 741h146q-60 -86 -103 -209t-43 -230q0 -109 43 -227.5t103 -211.5h-146q-170 242 -170 439q0 112 46.5 218t123.5 221z" />
    <glyph glyph-name="parenright" unicode=")" horiz-adv-x="444" 
d="M201 -137h-146q60 86 103 209t43 230q0 109 -43 227.5t-103 211.5h146q170 -242 170 -439q0 -112 -46.5 -218t-123.5 -221z" />
    <glyph glyph-name="asterisk" unicode="*" horiz-adv-x="519" 
d="M319 722l-32 -148l2 -2l105 100l59 -100l-137 -43v-2l137 -43l-59 -100l-105 100l-2 -2l32 -148h-119l32 148l-2 2l-105 -100l-59 100l137 43v2l-137 43l59 100l105 -100l2 2l-32 148h119z" />
    <glyph glyph-name="plus" unicode="+" horiz-adv-x="600" 
d="M233 0v186h-186v134h186v186h134v-186h186v-134h-186v-186h-134z" />
    <glyph glyph-name="comma" unicode="," 
d="M26 -121l85 275h204l-135 -275h-154z" />
    <glyph glyph-name="hyphen" unicode="-" horiz-adv-x="444" 
d="M66 203v128h312v-128h-312z" />
    <glyph glyph-name="period" unicode="." 
d="M92 0v154h186v-154h-186z" />
    <glyph glyph-name="slash" unicode="/" horiz-adv-x="444" 
d="M7 -19l284 760h146l-284 -760h-146z" />
    <glyph glyph-name="zero" unicode="0" horiz-adv-x="740" 
d="M244 349q0 -117 29.5 -178.5t96.5 -61.5t96.5 61.5t29.5 178.5t-29.5 178.5t-96.5 61.5t-96.5 -61.5t-29.5 -178.5zM40 349q0 173 86.5 270.5t243.5 97.5t243.5 -97.5t86.5 -270.5t-86.5 -270.5t-243.5 -97.5t-243.5 97.5t-86.5 270.5z" />
    <glyph glyph-name="one" unicode="1" horiz-adv-x="740" 
d="M329 0v510q-52 -33 -91.5 -50.5t-107.5 -38.5v167q98 28 233 110h164v-698h-198z" />
    <glyph glyph-name="two" unicode="2" horiz-adv-x="740" 
d="M57 0v148q37 23 112.5 67t117.5 71t92 64.5t73.5 73t23.5 71.5q0 42 -28 65t-69 23q-103 0 -108 -101h-198q0 120 78 177.5t218 57.5q145 0 228 -58.5t83 -164.5q0 -49 -27 -97.5t-66 -85t-92.5 -71.5t-97 -57t-89.5 -41v-2h375v-140h-626z" />
    <glyph glyph-name="three" unicode="3" horiz-adv-x="740" 
d="M309 294v128h44q62 0 87.5 26t25.5 58q0 43 -30.5 63t-75.5 20q-34 0 -63 -19t-33 -56h-198q9 203 296 203q155 0 231.5 -55.5t76.5 -138.5q0 -70 -41.5 -107.5t-127.5 -55.5v-2q80 -6 132 -49.5t52 -119.5q0 -57 -26 -98.5t-72.5 -64.5t-101 -34t-119.5 -11
q-75 0 -131 11t-100.5 35.5t-67.5 69t-24 108.5h204q0 -50 31.5 -73t83.5 -23q49 0 84 22.5t35 70.5q0 92 -129 92h-43z" />
    <glyph glyph-name="four" unicode="4" horiz-adv-x="740" 
d="M403 0v145h-378v166l336 387h228v-425h126v-128h-126v-145h-186zM403 273v297h-2l-230 -295v-2h232z" />
    <glyph glyph-name="five" unicode="5" horiz-adv-x="740" 
d="M72 271l23 427h533v-140h-362l-11 -165q71 69 176 69q107 0 180.5 -62t73.5 -175q0 -66 -27.5 -115.5t-74.5 -76.5t-101 -39.5t-116 -12.5q-67 0 -119 9.5t-97.5 31.5t-70 65t-24.5 104h198q4 -38 31.5 -60t71.5 -22q65 0 98 32t33 77q0 52 -32 84t-87 32q-79 0 -104 -63
h-192z" />
    <glyph glyph-name="six" unicode="6" horiz-adv-x="740" 
d="M671 522h-198q-13 67 -96 67q-137 0 -137 -182q78 59 186 59q110 0 188 -63t78 -180q0 -50 -18.5 -91t-49 -68.5t-71 -46.5t-84.5 -27.5t-90 -8.5q-82 0 -143 21.5t-96.5 55t-56.5 83.5t-28 98t-7 107q0 371 331 371q70 0 122.5 -12t82.5 -29.5t49.5 -45t26.5 -52
t11 -56.5zM488 219q0 55 -33.5 84t-84.5 29q-49 0 -83.5 -27.5t-34.5 -79.5q0 -50 31.5 -80t86.5 -30t86.5 27.5t31.5 76.5z" />
    <glyph glyph-name="seven" unicode="7" horiz-adv-x="740" 
d="M124 0l345 550h-412v148h610v-154l-310 -544h-233z" />
    <glyph glyph-name="eight" unicode="8" horiz-adv-x="740" 
d="M40 185q0 81 47.5 120t133.5 55v2q-70 9 -116 50.5t-46 108.5q0 59 30.5 100t81 60.5t98.5 27.5t101 8t101 -8t98.5 -27.5t81 -60.5t30.5 -100q0 -67 -46 -108.5t-116 -50.5v-2q86 -16 133.5 -55t47.5 -120q0 -60 -30.5 -103t-82 -63.5t-104 -29t-113.5 -8.5t-113.5 8.5
t-104 29t-82 63.5t-30.5 103zM238 204q0 -48 37.5 -71.5t94.5 -23.5t94.5 23.5t37.5 71.5t-37.5 71.5t-94.5 23.5t-94.5 -23.5t-37.5 -71.5zM257 505q0 -42 30.5 -63t82.5 -21t82.5 21t30.5 63t-30.5 63t-82.5 21t-82.5 -21t-30.5 -63z" />
    <glyph glyph-name="nine" unicode="9" horiz-adv-x="740" 
d="M67 185h204q1 -39 30 -56q23 -14 69 -14q111 0 124 132l6 58q-73 -53 -194 -53q-106 0 -182 61.5t-76 159.5q0 61 26.5 109t70.5 76.5t97 43.5t111 15q83 0 144.5 -19.5t98 -51t58.5 -79.5t30 -97t8 -111q0 -181 -77.5 -279.5t-252.5 -98.5q-56 0 -104.5 9.5t-92.5 31
t-70.5 63.5t-27.5 100zM252 481q0 -48 32 -71.5t83 -23.5q55 0 85.5 27t30.5 70q0 50 -33.5 75t-86.5 25q-45 0 -78 -24.5t-33 -77.5z" />
    <glyph glyph-name="colon" unicode=":" 
d="M92 0v154h186v-154h-186zM92 348v154h186v-154h-186z" />
    <glyph glyph-name="semicolon" unicode=";" 
d="M26 -121l85 275h204l-135 -275h-154zM92 348v154h186v-154h-186z" />
    <glyph glyph-name="less" unicode="&#x3c;" horiz-adv-x="600" 
d="M553 514v-134l-336 -127l336 -127v-134l-506 197v128z" />
    <glyph glyph-name="equal" unicode="=" horiz-adv-x="600" 
d="M47 308v134h506v-134h-506zM47 64v134h506v-134h-506z" />
    <glyph glyph-name="greater" unicode="&#x3e;" horiz-adv-x="600" 
d="M47 -8v134l336 127l-336 127v134l506 -197v-128z" />
    <glyph glyph-name="question" unicode="?" horiz-adv-x="741" 
d="M139 577v140q109 24 215 24q66 0 121.5 -10t103.5 -31.5t75.5 -62t27.5 -96.5q0 -109 -143 -189q-65 -36 -85 -59t-22 -80h-180q1 11 2.5 32.5t2.5 27.5t2.5 21.5t4 20t6 15t9 15.5t12.5 13.5t18 16.5t22.5 17t29.5 21l23 15q23 15 33 23t27.5 23.5t25.5 29.5t8 28
q0 38 -44.5 56.5t-110.5 18.5q-107 0 -184 -30zM249 0v154h186v-154h-186z" />
    <glyph glyph-name="at" unicode="@" horiz-adv-x="800" 
d="M314 337q0 -31 17.5 -52t54.5 -21q40 0 68 29.5t28 67.5q0 32 -19.5 52.5t-53.5 20.5q-42 0 -68.5 -29t-26.5 -68zM519 502l10 42h96l-45 -243q-6 -24 -6 -38q0 -17 14 -17q30 0 59 41t29 119q0 114 -73 172.5t-187 58.5q-123 0 -204.5 -79t-81.5 -198q0 -124 82 -199.5
t200 -75.5q127 0 207 58h116q-109 -162 -323 -162q-168 0 -280 107t-112 272q0 178 112.5 279.5t286.5 101.5q164 0 262.5 -85.5t98.5 -217.5q0 -65 -22 -119.5t-54.5 -87t-71 -55t-68 -31.5t-49.5 -9q-55 0 -58 52h-2q-33 -52 -103 -52q-77 0 -124.5 55t-47.5 130
q0 102 61 171.5t154 69.5q81 0 124 -60z" />
    <glyph glyph-name="A" unicode="A" horiz-adv-x="1037" 
d="M656 277l-143 305l-148 -305h291zM14 0l383 722h251l375 -722h-235l-68 143h-420l-70 -143h-216z" />
    <glyph glyph-name="B" unicode="B" horiz-adv-x="889" 
d="M100 0v722h425q135 0 202 -51t67 -127q0 -61 -41.5 -106.5t-111.5 -62.5v-2q84 -7 134 -54.5t50 -116.5q0 -39 -15 -73t-48 -64t-93.5 -47.5t-142.5 -17.5h-426zM304 299v-165h188q117 0 117 82q0 42 -31.5 62.5t-75.5 20.5h-198zM304 588v-161h131q143 0 143 81
q0 43 -31.5 61.5t-94.5 18.5h-148z" />
    <glyph glyph-name="C" unicode="C" horiz-adv-x="889" 
d="M844 485h-216q-15 108 -156 108q-99 0 -151 -62.5t-52 -165.5q0 -104 48.5 -170t148.5 -66q67 0 111 27.5t49 88.5h222q-3 -77 -35 -130.5t-89 -82t-124 -40t-155 -11.5q-174 0 -283 94t-109 285q0 196 112 288.5t314 92.5q73 0 135 -13.5t114.5 -42.5t83.5 -80t32 -120z
" />
    <glyph glyph-name="D" unicode="D" horiz-adv-x="963" 
d="M100 0v722h401q169 0 260 -60q69 -45 109 -121.5t40 -172.5q0 -183 -115 -281q-102 -87 -309 -87h-386zM310 582v-442h95q72 0 118.5 7.5t88.5 30t62 68.5t20 118q0 121 -64.5 169.5t-189.5 48.5h-130z" />
    <glyph glyph-name="E" unicode="E" horiz-adv-x="815" 
d="M100 0v722h620v-148h-410v-134h388v-148h-388v-144h419v-148h-629z" />
    <glyph glyph-name="F" unicode="F" horiz-adv-x="741" 
d="M94 0v722h585v-154h-375v-150h354v-148h-354v-270h-210z" />
    <glyph glyph-name="G" unicode="G" horiz-adv-x="963" 
d="M483 263v134h383v-382q-221 -34 -354 -34q-101 0 -182 20t-144.5 62t-98 114t-34.5 170q0 199 118 296.5t326 97.5q57 0 108.5 -7t101 -25t85.5 -45.5t59 -71t25 -99.5h-216q-4 108 -162 108q-119 0 -174 -64.5t-55 -170.5q0 -120 65 -182.5t191 -62.5q65 0 149 18v124
h-191z" />
    <glyph glyph-name="H" unicode="H" horiz-adv-x="963" 
d="M94 0v722h210v-287h355v287h210v-722h-210v287h-355v-287h-210z" />
    <glyph glyph-name="I" unicode="I" 
d="M80 0v722h210v-722h-210z" />
    <glyph glyph-name="J" unicode="J" horiz-adv-x="741" 
d="M647 722v-448q0 -156 -80.5 -224.5t-241.5 -68.5q-149 0 -233 64t-84 192v15h210q3 -63 26.5 -93t82.5 -30q53 0 81.5 33.5t28.5 112.5v447h210z" />
    <glyph glyph-name="K" unicode="K" horiz-adv-x="889" 
d="M100 0v722h210v-319l292 319h253l-316 -324l339 -398h-272l-294 372h-2v-372h-210z" />
    <glyph glyph-name="L" unicode="L" horiz-adv-x="741" 
d="M100 0v722h210v-574h408v-148h-618z" />
    <glyph glyph-name="M" unicode="M" horiz-adv-x="1259" 
d="M92 0v722h324l213 -536l225 536h313v-722h-198v588h-2l-239 -588h-216l-240 588h-2v-588h-178z" />
    <glyph glyph-name="N" unicode="N" horiz-adv-x="963" 
d="M85 0v722h276l329 -520h2v520h186v-722h-278l-327 520h-2v-520h-186z" />
    <glyph glyph-name="O" unicode="O" horiz-adv-x="964" 
d="M269 361q0 -105 50 -168.5t163 -63.5t163 63.5t50 168.5t-50 168.5t-163 63.5t-163 -63.5t-50 -168.5zM53 361q0 173 106 276.5t323 103.5t323 -103.5t106 -276.5t-106 -276.5t-323 -103.5t-323 103.5t-106 276.5z" />
    <glyph glyph-name="P" unicode="P" horiz-adv-x="815" 
d="M94 0v722h403q128 0 206 -59t78 -178q0 -229 -308 -229h-169v-256h-210zM304 582v-186h129q64 0 98 20.5t34 71.5q0 94 -116 94h-145z" />
    <glyph glyph-name="Q" unicode="Q" horiz-adv-x="963" 
d="M269 361q0 -105 50 -168.5t163 -63.5t163 63.5t50 168.5t-50 168.5t-163 63.5t-163 -63.5t-50 -168.5zM957 140v-140h-157q-94 0 -186 -9q-102 -10 -132 -10q-217 0 -323 103.5t-106 276.5t106 276.5t323 103.5q109 0 194 -30.5t134.5 -81t75 -111.5t25.5 -128
q0 -90 -37 -163t-105 -117l2 -2q74 32 145 32h41z" />
    <glyph glyph-name="R" unicode="R" horiz-adv-x="889" 
d="M100 0v722h441q132 0 202.5 -48t70.5 -141q0 -68 -50 -114t-133 -61v-2q112 -7 142 -63q19 -35 37 -147t32 -146h-223q-12 35 -21 117t-19 107q-10 26 -39 38t-90 12h-140v-274h-210zM310 582v-168h167q69 0 98 21t29 64q0 49 -37 66t-119 17h-138z" />
    <glyph glyph-name="S" unicode="S" horiz-adv-x="815" 
d="M55 234h210q1 -67 33 -90t109 -23q143 0 143 76q0 33 -31.5 50t-101.5 30l-103 20q-51 10 -89.5 23t-76 36t-58 60t-20.5 86q0 64 27.5 111.5t75.5 74.5t104.5 40t121.5 13q129 0 205.5 -27.5t106.5 -74.5t34 -123h-204q-4 50 -38 67.5t-91 17.5q-66 0 -99 -19.5
t-33 -51.5q0 -12 4.5 -21.5t16 -17t21 -12.5t30.5 -10.5t32.5 -8t38.5 -8.5l97 -20q56 -11 94.5 -25t74 -37.5t53.5 -61t18 -89.5q0 -58 -23 -102t-58.5 -69t-85.5 -41t-97 -21t-101 -5q-84 0 -146.5 14.5t-99 37.5t-58.5 57.5t-29 68t-7 75.5z" />
    <glyph glyph-name="T" unicode="T" horiz-adv-x="816" 
d="M303 0v574h-278v148h766v-148h-278v-574h-210z" />
    <glyph glyph-name="U" unicode="U" horiz-adv-x="963" 
d="M872 722v-392q0 -183 -98 -266t-292 -83t-292.5 76.5t-98.5 244.5v420h210v-405q0 -188 181 -188q98 0 139 55.5t41 158.5v379h210z" />
    <glyph glyph-name="V" unicode="V" horiz-adv-x="889" 
d="M875 722l-304 -722h-252l-305 722h228l210 -588l219 588h204z" />
    <glyph glyph-name="W" unicode="W" horiz-adv-x="1259" 
d="M1245 722l-210 -722h-254l-147 568h-2l-156 -568h-258l-204 722h220l119 -574h2l164 574h253l144 -574h2l129 574h198z" />
    <glyph glyph-name="X" unicode="X" horiz-adv-x="963" 
d="M14 0l333 376l-310 346h277l182 -230l178 230h250l-310 -346l335 -376h-284l-197 252l-196 -252h-258z" />
    <glyph glyph-name="Y" unicode="Y" horiz-adv-x="888" 
d="M339 0v257l-325 465h258l185 -308l183 308h234l-325 -465v-257h-210z" />
    <glyph glyph-name="Z" unicode="Z" horiz-adv-x="815" 
d="M51 0v186l451 388h-421v148h672v-192l-446 -382h457v-148h-713z" />
    <glyph glyph-name="bracketleft" unicode="[" horiz-adv-x="444" 
d="M93 -137v878h282v-116h-130v-646h130v-116h-282z" />
    <glyph glyph-name="backslash" unicode="\" horiz-adv-x="444" 
d="M153 741l284 -760h-146l-284 760h146z" />
    <glyph glyph-name="bracketright" unicode="]" horiz-adv-x="444" 
d="M351 741v-878h-282v116h130v646h-130v116h282z" />
    <glyph glyph-name="asciicircum" unicode="^" horiz-adv-x="600" 
d="M65 333l174 365h122l174 -365h-134l-101 225l-101 -225h-134z" />
    <glyph glyph-name="underscore" unicode="_" horiz-adv-x="500" 
d="M0 -125v50h500v-50h-500z" />
    <glyph glyph-name="grave" unicode="`" 
d="M182 722l112 -140h-158l-164 140h210z" />
    <glyph glyph-name="a" unicode="a" horiz-adv-x="741" 
d="M472 219h-80q-89 0 -122.5 -20t-33.5 -56q0 -24 21.5 -38t61.5 -14q84 0 118.5 39t34.5 89zM265 354h-198q4 47 30.5 81t69 52t89.5 26t100 8q156 0 232 -47.5t76 -169.5v-192q0 -63 4 -112h-186q-4 34 -4 81h-2q-61 -100 -217 -100q-108 0 -167.5 42.5t-59.5 120.5
q0 173 300 173h140q0 58 -26.5 79t-86.5 21q-92 0 -94 -63z" />
    <glyph glyph-name="b" unicode="b" horiz-adv-x="815" 
d="M81 83v639h192v-286q83 85 214 85q128 0 206 -72t78 -195q0 -126 -78.5 -199.5t-200.5 -73.5q-85 0 -134.5 27t-90.5 75q0 -46 -4 -83h-186q4 36 4 83zM567 254q0 66 -40.5 108.5t-104.5 42.5q-66 0 -107.5 -43t-41.5 -115q0 -67 41.5 -108.5t107.5 -41.5
q70 0 107.5 45.5t37.5 111.5z" />
    <glyph glyph-name="c" unicode="c" horiz-adv-x="741" 
d="M493 188h204q-6 -58 -37 -100.5t-79 -64.5t-100 -32t-112 -10q-47 0 -91.5 8.5t-87.5 28.5t-75 50t-51.5 76.5t-19.5 104.5q0 73 28 127t76.5 85t107 45.5t126.5 14.5q56 0 104.5 -9.5t94 -30.5t75 -61t35.5 -96h-198q-15 87 -111 87q-63 0 -98.5 -44t-35.5 -115
t33.5 -116t100.5 -45q49 0 79.5 25t31.5 72z" />
    <glyph glyph-name="d" unicode="d" horiz-adv-x="815" 
d="M734 722v-639q0 -47 4 -83h-186q-4 37 -4 83q-41 -48 -90.5 -75t-134.5 -27q-122 0 -200.5 73.5t-78.5 199.5q0 123 78 195t206 72q131 0 214 -85v286h192zM248 254q0 -66 37.5 -111.5t107.5 -45.5q65 0 107 41.5t42 108.5q0 72 -41.5 115t-107.5 43q-64 0 -104.5 -42.5
t-40.5 -108.5z" />
    <glyph glyph-name="e" unicode="e" horiz-adv-x="741" 
d="M245 308h248q-3 109 -124 109q-105 0 -124 -109zM697 204h-455q6 -119 131 -119q39 0 63 11t32 23.5t14 33.5h204q-10 -39 -27 -68t-42 -47.5t-51 -30t-61.5 -17t-65 -7.5t-69.5 -2q-69 0 -125 13.5t-102.5 43t-72.5 81.5t-26 124q0 70 26 124.5t71.5 87.5t102.5 49.5
t123 16.5q176 0 252.5 -81t77.5 -236z" />
    <glyph glyph-name="f" unicode="f" horiz-adv-x="519" 
d="M139 0v380h-116v122h116q0 72 16 117t52.5 69t83 32t121.5 8q42 0 84 -6v-114q-30 4 -52 4q-60 0 -85 -22t-25 -88h151v-122h-154v-380h-192z" />
    <glyph glyph-name="g" unicode="g" horiz-adv-x="815" 
d="M247 264q0 -59 39 -97t106 -38q71 0 110.5 37t39.5 98q0 62 -43 98.5t-109 36.5q-68 0 -105.5 -37.5t-37.5 -97.5zM542 70v39h-2q-32 -51 -93.5 -76.5t-130.5 -25.5q-119 0 -196 74t-77 183q0 118 76.5 187.5t200.5 69.5q149 0 226 -99h2q0 51 4 80h186q-4 -40 -4 -80
v-346q0 -86 -25.5 -144t-76.5 -88.5t-112 -42.5t-147 -12q-79 0 -136 11t-88.5 26.5t-50.5 41.5t-24.5 47t-8.5 52h204q8 -42 40 -56q25 -12 73 -12q84 0 122 37t38 134z" />
    <glyph glyph-name="h" unicode="h" horiz-adv-x="815" 
d="M81 0v722h192v-306q48 56 96 80.5t116 24.5q128 0 188.5 -64.5t60.5 -170.5v-286h-192v257q0 63 -29.5 99.5t-92.5 36.5q-62 0 -104.5 -46t-42.5 -126v-221h-192z" />
    <glyph glyph-name="i" unicode="i" 
d="M89 0v502h192v-502h-192zM290 722v-140h-210v140h210z" />
    <glyph glyph-name="j" unicode="j" 
d="M-46 -189v119h9q43 0 64 3.5t37 17.5t20.5 39t4.5 72v440h192v-468q0 -124 -55.5 -175t-180.5 -51q-19 0 -54 1.5t-37 1.5zM290 722v-140h-210v140h210z" />
    <glyph glyph-name="k" unicode="k" horiz-adv-x="815" 
d="M89 0v722h192v-434l240 214h241l-247 -215l279 -287h-265l-248 273v-273h-192z" />
    <glyph glyph-name="l" unicode="l" 
d="M89 0v722h192v-722h-192z" />
    <glyph glyph-name="m" unicode="m" horiz-adv-x="1186" 
d="M81 0v399q0 58 -4 103h186q4 -60 4 -90h2q74 109 207 109q59 0 107.5 -28t72.5 -85q71 113 212 113q35 0 66 -5.5t63.5 -21t55.5 -41t37.5 -68.5t14.5 -100v-285h-192v263q0 130 -107 130q-49 0 -83 -35.5t-34 -90.5v-267h-192v257q0 65 -22 100.5t-82 35.5
q-51 0 -85.5 -42.5t-34.5 -110.5v-240h-192z" />
    <glyph glyph-name="n" unicode="n" horiz-adv-x="815" 
d="M81 0v399q0 58 -4 103h186q4 -60 4 -90h2q81 109 213 109q130 0 191 -64.5t61 -170.5v-286h-192v257q0 63 -29.5 99.5t-92.5 36.5q-62 0 -104.5 -46t-42.5 -126v-221h-192z" />
    <glyph glyph-name="o" unicode="o" horiz-adv-x="816" 
d="M248 251q0 -75 45 -117.5t115 -42.5t115 42.5t45 117.5t-45 117.5t-115 42.5t-115 -42.5t-45 -117.5zM44 251q0 48 18 93t57 86t113.5 66t175.5 25t175.5 -25t113.5 -66t57 -86t18 -93t-18 -93t-57 -86t-113.5 -66t-175.5 -25t-175.5 25t-113.5 66t-57 86t-18 93z" />
    <glyph glyph-name="p" unicode="p" horiz-adv-x="815" 
d="M81 -192v611q0 47 -4 83h186q4 -37 4 -83q41 48 90.5 75t134.5 27q122 0 200.5 -73.5t78.5 -199.5q0 -123 -78 -195t-206 -72q-131 0 -214 85v-258h-192zM567 248q0 66 -37.5 111.5t-107.5 45.5q-66 0 -107.5 -41.5t-41.5 -108.5q0 -72 41.5 -115t107.5 -43
q64 0 104.5 42.5t40.5 108.5z" />
    <glyph glyph-name="q" unicode="q" horiz-adv-x="815" 
d="M734 419v-611h-192v258q-83 -85 -214 -85q-128 0 -206 72t-78 195q0 126 78.5 199.5t200.5 73.5q85 0 134.5 -27t90.5 -75q0 46 4 83h186q-4 -36 -4 -83zM248 248q0 -66 40.5 -108.5t104.5 -42.5q66 0 107.5 43t41.5 115q0 67 -42 108.5t-107 41.5q-70 0 -107.5 -45.5
t-37.5 -111.5z" />
    <glyph glyph-name="r" unicode="r" horiz-adv-x="519" 
d="M81 0v399q0 58 -4 103h186q4 -48 4 -108h2q34 70 80.5 92.5t144.5 22.5v-164q-28 4 -51 4q-78 0 -124 -42t-46 -117v-190h-192z" />
    <glyph glyph-name="s" unicode="s" horiz-adv-x="667" 
d="M42 157h198q0 -38 24 -57q19 -15 63 -15q100 0 100 55q0 40 -84 53l-133 21q-152 24 -152 139q0 41 18.5 72t46 49t66 29t72.5 14.5t71 3.5q155 0 216.5 -41.5t64.5 -126.5h-192q-4 37 -25 51q-20 13 -68 13q-27 0 -49.5 -11.5t-22.5 -32.5q0 -24 23 -34.5t65 -17.5
l130 -21q81 -13 116 -49.5t35 -100.5q0 -169 -305 -169q-72 0 -124.5 12t-80 28t-44.5 42.5t-21.5 46t-7.5 47.5z" />
    <glyph glyph-name="t" unicode="t" horiz-adv-x="519" 
d="M16 380v122h123v102l192 70v-172h162v-122h-162v-157q0 -58 16 -82.5t70 -24.5q31 0 76 6v-122q-72 -12 -129 -12q-225 0 -225 179v213h-123z" />
    <glyph glyph-name="u" unicode="u" horiz-adv-x="815" 
d="M734 502v-399q0 -58 4 -103h-186q-4 60 -4 90h-2q-81 -109 -213 -109q-130 0 -191 64.5t-61 170.5v286h192v-257q0 -63 29.5 -99.5t92.5 -36.5q62 0 104.5 46t42.5 126v221h192z" />
    <glyph glyph-name="v" unicode="v" horiz-adv-x="741" 
d="M726 502l-237 -502h-237l-237 502h216l153 -392l156 392h186z" />
    <glyph glyph-name="w" unicode="w" horiz-adv-x="1185" 
d="M1170 502l-212 -502h-225l-140 386h-2l-139 -386h-225l-212 502h216l119 -374h2l132 374h237l134 -374h2l129 374h184z" />
    <glyph glyph-name="x" unicode="x" horiz-adv-x="741" 
d="M15 0l225 265l-197 237h248l91 -143l102 143h222l-200 -237l220 -265h-248l-119 176l-128 -176h-216z" />
    <glyph glyph-name="y" unicode="y" horiz-adv-x="741" 
d="M164 -192l109 192l-258 502h224l144 -345l154 345h189l-358 -694h-204z" />
    <glyph glyph-name="z" unicode="z" horiz-adv-x="667" 
d="M52 0v148l302 236v2h-277v116h513v-134l-315 -250v-2h340v-116h-563z" />
    <glyph glyph-name="braceleft" unicode="{" horiz-adv-x="444" 
d="M41 244v116q13 0 25.5 2t29 8t27 20.5t10.5 35.5v186q0 63 40.5 96t94.5 33h110v-116h-35q-33 0 -45.5 -14t-12.5 -47v-166q0 -33 -21 -55.5t-43.5 -30t-45.5 -9.5v-2q23 -2 45.5 -9.5t43.5 -30t21 -55.5v-166q0 -33 12.5 -47t45.5 -14h35v-116h-110q-54 0 -94.5 33
t-40.5 96v186q0 21 -10.5 35.5t-27 20.5t-29 8t-25.5 2z" />
    <glyph glyph-name="bar" unicode="|" horiz-adv-x="222" 
d="M44 -19v760h134v-760h-134z" />
    <glyph glyph-name="braceright" unicode="}" horiz-adv-x="444" 
d="M403 360v-116q-13 0 -25.5 -2t-29 -8t-27 -20.5t-10.5 -35.5v-186q0 -63 -40.5 -96t-94.5 -33h-110v116h35q33 0 45.5 14t12.5 47v166q0 33 21 55.5t43.5 30t45.5 9.5v2q-23 2 -45.5 9.5t-43.5 30t-21 55.5v166q0 33 -12.5 47t-45.5 14h-35v116h110q54 0 94.5 -33
t40.5 -96v-186q0 -21 10.5 -35.5t27 -20.5t29 -8t25.5 -2z" />
    <glyph glyph-name="asciitilde" unicode="~" horiz-adv-x="600" 
d="M495 357l36 -118q-20 -28 -32.5 -43t-38 -30t-54.5 -15q-38 0 -102 35q-62 35 -115 35q-51 0 -84 -72l-36 118q46 88 125 88q35 0 111 -34q7 -3 21.5 -9.5t23 -10t20 -8t20.5 -6.5t17 -2q19 0 36.5 12t27 24.5t24.5 35.5z" />
    <glyph glyph-name="uni00A0" unicode="&#xa0;" 
 />
    <glyph glyph-name="exclamdown" unicode="&#xa1;" horiz-adv-x="520" 
d="M167 376v154h186v-154h-186zM149 -192l32 509h158l32 -509h-222z" />
    <glyph glyph-name="cent" unicode="&#xa2;" horiz-adv-x="740" 
d="M216 -131l42 125q-94 23 -154 86t-60 169q0 73 28 127t76.5 85t107 45.5t126.5 14.5q17 0 49 -2l38 114h58l-40 -121q187 -37 204 -188h-198q-9 50 -44 72l-100 -301q13 -4 33 -4q49 0 79.5 25t31.5 72h204q-6 -58 -37 -100.5t-79 -64.5t-100 -32t-112 -10q-29 0 -57 3
l-38 -115h-58zM299 119l96 291q-4 1 -13 1q-63 0 -98.5 -44t-35.5 -115q0 -91 51 -133z" />
    <glyph glyph-name="sterling" unicode="&#xa3;" horiz-adv-x="740" 
d="M67 0v140h82v168h-97v134h97v45q0 141 69 197.5t220 56.5q268 0 274 -185h-204q-1 34 -21 52q-18 17 -54 17q-86 0 -86 -139v-44h167v-134h-167v-168h359v-140h-639z" />
    <glyph glyph-name="currency" unicode="&#xa4;" horiz-adv-x="740" 
d="M109 149l60 57q-47 59 -47 143q0 81 47 143l-60 57l59 59l60 -59q59 48 142 48t142 -48l60 59l59 -59l-60 -57q47 -62 47 -143q0 -84 -47 -143l60 -57l-59 -59l-60 59q-59 -48 -142 -48t-142 48l-60 -59zM244 349q0 -58 35.5 -98t90.5 -40t90.5 40t35.5 98t-35.5 98
t-90.5 40t-90.5 -40t-35.5 -98z" />
    <glyph glyph-name="yen" unicode="&#xa5;" horiz-adv-x="740" 
d="M282 0v127h-184v98h184v32l-23 39h-161v98h104l-190 328h216l152 -308l153 308h195l-190 -328h104v-98h-161l-23 -39v-32h184v-98h-184v-127h-176z" />
    <glyph glyph-name="brokenbar" unicode="&#xa6;" horiz-adv-x="222" 
d="M44 -19v293h134v-293h-134zM44 448v293h134v-293h-134z" />
    <glyph glyph-name="section" unicode="&#xa7;" horiz-adv-x="741" 
d="M621 691v-134q-50 23 -124 42.5t-123 19.5q-65 0 -65 -35q0 -11 7.5 -19.5t25.5 -16t28 -10.5t34 -10l101 -29q34 -10 55.5 -18t52.5 -24.5t47 -40t16 -53.5q0 -28 -11.5 -49.5t-34.5 -37t-42 -24t-50 -18.5v-2q46 -7 84.5 -47t38.5 -85q0 -154 -267 -154q-129 0 -296 54
v140q58 -29 134 -50.5t132 -21.5q45 0 66 8t21 33q0 32 -62 47l-124 30q-28 7 -49 13t-51.5 19t-50.5 27.5t-34.5 38t-14.5 50.5q0 53 39.5 85t114.5 55v2q-55 20 -87.5 47t-32.5 75q0 143 252 143q108 0 270 -50zM269 361q0 -19 20.5 -32.5t42.5 -19.5q70 -19 79 -19
q3 0 16.5 6.5t29 21.5t15.5 31q0 13 -10.5 23.5t-19.5 14.5t-29 12q-63 21 -74 21q-13 0 -41.5 -19t-28.5 -40z" />
    <glyph glyph-name="dieresis" unicode="&#xa8;" 
d="M-27 582v140h158v-140h-158zM239 582v140h158v-140h-158z" />
    <glyph glyph-name="copyright" unicode="&#xa9;" horiz-adv-x="800" 
d="M484 307h104q-13 -76 -63.5 -116.5t-119.5 -40.5q-91 0 -147.5 60t-56.5 151q0 92 55 151.5t147 59.5q70 0 118.5 -39t60.5 -112h-98q-12 59 -78 59q-43 0 -66 -32t-23 -87q0 -52 24.5 -85.5t63.5 -33.5q72 0 79 65zM20 361q0 157 111 268.5t269 111.5t269 -111.5
t111 -268.5t-111 -268.5t-269 -111.5t-269 111.5t-111 268.5zM148 361q0 -108 72.5 -183t179.5 -75t179.5 75t72.5 183t-72.5 183t-179.5 75t-179.5 -75t-72.5 -183z" />
    <glyph glyph-name="ordfeminine" unicode="&#xaa;" horiz-adv-x="482" 
d="M306 526h-34q-64 0 -88.5 -8.5t-24.5 -27.5q0 -30 52 -30q51 0 73 21t22 45zM306 397v49h-2q-35 -59 -140 -59q-63 0 -104 24.5t-41 72.5q0 36 19.5 60t55 34t66 13t72.5 3h74q0 31 -18 43t-54 12q-55 0 -57 -30h-134q3 51 64 77q49 21 125 21q103 0 155.5 -29t52.5 -102
v-123q0 -34 3 -66h-137z" />
    <glyph glyph-name="guillemotleft" unicode="&#xab;" horiz-adv-x="667" 
d="M336 462l-117 -195l117 -195h-166l-122 195l122 195h166zM595 462l-117 -195l117 -195h-166l-122 195l122 195h166z" />
    <glyph glyph-name="logicalnot" unicode="&#xac;" horiz-adv-x="600" 
d="M419 126v182h-372v134h506v-316h-134z" />
    <glyph glyph-name="uni00AD" unicode="&#xad;" horiz-adv-x="444" 
d="M66 203v128h312v-128h-312z" />
    <glyph glyph-name="registered" unicode="&#xae;" horiz-adv-x="800" 
d="M20 361q0 157 111 268.5t269 111.5t269 -111.5t111 -268.5t-111 -268.5t-269 -111.5t-269 111.5t-111 268.5zM148 361q0 -108 72.5 -183t179.5 -75t179.5 75t72.5 183t-72.5 183t-179.5 75t-179.5 -75t-72.5 -183zM250 178v386h149q86 0 128.5 -27t42.5 -95
q0 -51 -25.5 -76.5t-60.5 -29.5l80 -158h-99l-77 153h-46v-153h-92zM342 490v-85h71q59 0 59 43q0 42 -66 42h-64z" />
    <glyph glyph-name="macron" unicode="&#xaf;" 
d="M-29 603v98h428v-98h-428z" />
    <glyph glyph-name="degree" unicode="&#xb0;" horiz-adv-x="400" 
d="M57 574q0 59 42 101t101 42t101 -42t42 -101t-42 -101t-101 -42t-101 42t-42 101zM119 574q0 -34 23.5 -57.5t57.5 -23.5t57.5 23.5t23.5 57.5t-23.5 57.5t-57.5 23.5t-57.5 -23.5t-23.5 -57.5z" />
    <glyph glyph-name="plusminus" unicode="&#xb1;" horiz-adv-x="600" 
d="M233 400v106h134v-106h186v-134h-186v-106h-134v106h-186v134h186zM47 0v134h506v-134h-506z" />
    <glyph glyph-name="twosuperior" unicode="&#xb2;" horiz-adv-x="481" 
d="M36 285v92q19 11 52 28t54.5 28.5t49.5 27.5t45.5 29.5t34.5 28.5t25 30.5t8 30.5q0 24 -17 37.5t-43 13.5q-64 0 -68 -55h-134q0 72 52 106.5t144 34.5q95 0 150.5 -35t55.5 -99q0 -37 -25.5 -72t-65 -61t-75 -43t-67.5 -28v-2h233v-92h-409z" />
    <glyph glyph-name="threesuperior" unicode="&#xb3;" horiz-adv-x="481" 
d="M203 459v86h28q71 0 71 46q0 40 -66 40q-53 0 -59 -42h-134q4 128 194 128q101 0 153 -33.5t52 -82.5q0 -77 -114 -97v-2q54 -4 88.5 -29.5t34.5 -74.5q0 -65 -60 -94.5t-151 -29.5q-101 0 -155.5 31t-54.5 109h140q0 -28 17 -42q16 -12 50 -12q30 0 52 12t22 34
q0 31 -21 42t-60 11h-27z" />
    <glyph glyph-name="acute" unicode="&#xb4;" 
d="M76 582l112 140h210l-164 -140h-158z" />
    <glyph glyph-name="mu" unicode="&#xb5;" horiz-adv-x="815" 
d="M734 502v-399q0 -58 4 -103h-186q-4 60 -4 90h-2q-37 -50 -87 -79.5t-93 -29.5q-68 0 -91 39h-2v-212h-192v694h192v-257q0 -63 29.5 -99.5t92.5 -36.5q62 0 104.5 46t42.5 126v221h192z" />
    <glyph glyph-name="paragraph" unicode="&#xb6;" horiz-adv-x="620" 
d="M241 -35v408q-108 0 -165.5 45t-57.5 126q0 100 64.5 139t181.5 39h314v-757h-134v653h-69v-653h-134z" />
    <glyph glyph-name="periodcentered" unicode="&#xb7;" 
d="M65 241q0 49 35.5 84.5t84.5 35.5t84.5 -35.5t35.5 -84.5t-35.5 -84.5t-84.5 -35.5t-84.5 35.5t-35.5 84.5z" />
    <glyph glyph-name="cedilla" unicode="&#xb8;" 
d="M42 -192l22 53q50 -16 95 -16q47 0 47 31q0 15 -15 22.5t-35 7.5q-26 0 -44 -6l-24 29l80 80h74l-67 -64l2 -2q19 7 44 7q43 0 75 -22.5t32 -56.5q0 -82 -158 -82q-72 0 -128 19z" />
    <glyph glyph-name="onesuperior" unicode="&#xb9;" horiz-adv-x="481" 
d="M205 285v304q-55 -32 -129 -53v104q60 16 152 66h111v-421h-134z" />
    <glyph glyph-name="ordmasculine" unicode="&#xba;" horiz-adv-x="530" 
d="M166 552q0 -45 27.5 -68t71.5 -23t71.5 23t27.5 68q0 44 -28 67.5t-71 23.5t-71 -23.5t-28 -67.5zM26 552q0 67 56 116t183 49q67 0 116 -15t74.5 -40t37 -51.5t11.5 -55.5q0 -70 -55.5 -119t-183.5 -49q-67 0 -116 14.5t-74.5 39.5t-37 52.5t-11.5 58.5z" />
    <glyph glyph-name="guillemotright" unicode="&#xbb;" horiz-adv-x="667" 
d="M331 72l117 195l-117 195h166l122 -195l-122 -195h-166zM72 72l117 195l-117 195h166l122 -195l-122 -195h-166z" />
    <glyph glyph-name="onequarter" unicode="&#xbc;" horiz-adv-x="1111" 
d="M859 0v83h-244v105l212 233h160v-252h76v-86h-76v-83h-128zM859 169v166h-2l-144 -164v-2h146zM247 -55l442 808h110l-442 -808h-110zM205 285v304q-55 -32 -129 -53v104q60 16 152 66h111v-421h-134z" />
    <glyph glyph-name="onehalf" unicode="&#xbd;" horiz-adv-x="1111" 
d="M217 -55l442 808h110l-442 -808h-110zM205 285v304q-55 -32 -129 -53v104q60 16 152 66h111v-421h-134zM636 0v92q19 11 52 28t54.5 28.5t49.5 27.5t45.5 29.5t34.5 28.5t25 30.5t8 30.5q0 24 -17 37.5t-43 13.5q-64 0 -68 -55h-134q0 72 52 106.5t144 34.5
q95 0 150.5 -35t55.5 -99q0 -37 -25.5 -72t-65 -61t-75 -43t-67.5 -28v-2h233v-92h-409z" />
    <glyph glyph-name="threequarters" unicode="&#xbe;" horiz-adv-x="1111" 
d="M859 0v83h-244v105l212 233h160v-252h76v-86h-76v-83h-128zM859 169v166h-2l-144 -164v-2h146zM287 -55l442 808h110l-442 -808h-110zM203 459v86h28q71 0 71 46q0 40 -66 40q-53 0 -59 -42h-134q4 128 194 128q101 0 153 -33.5t52 -82.5q0 -77 -114 -97v-2
q54 -4 88.5 -29.5t34.5 -74.5q0 -65 -60 -94.5t-151 -29.5q-101 0 -155.5 31t-54.5 109h140q0 -28 17 -42q16 -12 50 -12q30 0 52 12t22 34q0 31 -21 42t-60 11h-27z" />
    <glyph glyph-name="questiondown" unicode="&#xbf;" horiz-adv-x="741" 
d="M602 -47v-140q-109 -24 -215 -24q-66 0 -121.5 10t-103.5 31.5t-75.5 62t-27.5 96.5q0 109 143 189q65 36 85 59t22 80h180q-1 -11 -2.5 -32.5t-2.5 -27.5t-2.5 -21.5t-4 -20t-6 -15t-9 -15.5t-12.5 -13.5t-18 -16.5t-22.5 -17t-29.5 -21l-23 -15q-23 -15 -33 -23
t-27.5 -23.5t-25.5 -29.5t-8 -28q0 -38 44.5 -56.5t110.5 -18.5q107 0 184 30zM492 530v-154h-186v154h186z" />
    <glyph glyph-name="Agrave" unicode="&#xc0;" horiz-adv-x="1037" 
d="M656 277l-143 305l-148 -305h291zM14 0l383 722h251l375 -722h-235l-68 143h-420l-70 -143h-216zM516 913l112 -140h-158l-164 140h210z" />
    <glyph glyph-name="Aacute" unicode="&#xc1;" horiz-adv-x="1037" 
d="M656 277l-143 305l-148 -305h291zM14 0l383 722h251l375 -722h-235l-68 143h-420l-70 -143h-216zM410 773l112 140h210l-164 -140h-158z" />
    <glyph glyph-name="Acircumflex" unicode="&#xc2;" horiz-adv-x="1037" 
d="M656 277l-143 305l-148 -305h291zM14 0l383 722h251l375 -722h-235l-68 143h-420l-70 -143h-216zM286 773l129 140h207l130 -140h-158l-75 78l-75 -78h-158z" />
    <glyph glyph-name="Atilde" unicode="&#xc3;" horiz-adv-x="1037" 
d="M656 277l-143 305l-148 -305h291zM14 0l383 722h251l375 -722h-235l-68 143h-420l-70 -143h-216zM669 913h80q-7 -140 -127 -140q-32 0 -107.5 18.5t-91.5 18.5t-26 -5t-14.5 -11t-13.5 -21h-80q7 140 127 140q32 0 107.5 -18.5t91.5 -18.5t26 5t14.5 11t13.5 21z" />
    <glyph glyph-name="Adieresis" unicode="&#xc4;" horiz-adv-x="1037" 
d="M656 277l-143 305l-148 -305h291zM14 0l383 722h251l375 -722h-235l-68 143h-420l-70 -143h-216zM307 773v140h158v-140h-158zM573 773v140h158v-140h-158z" />
    <glyph glyph-name="Aring" unicode="&#xc5;" horiz-adv-x="1037" 
d="M656 277l-143 305l-148 -305h291zM14 0l383 722h251l375 -722h-235l-68 143h-420l-70 -143h-216zM377 834q0 105 142 105t142 -105q0 -59 -38 -82t-104 -23t-104 23t-38 82zM463 834q0 -24 15.5 -39.5t40.5 -15.5t40.5 15.5t15.5 39.5t-15.5 39.5t-40.5 15.5t-40.5 -15.5
t-15.5 -39.5z" />
    <glyph glyph-name="AE" unicode="&#xc6;" horiz-adv-x="1333" 
d="M14 0l472 722h745v-148h-442l38 -134h380v-148h-337l38 -144h339v-148h-511l-38 148h-367l-88 -148h-229zM659 288l-71 306l-165 -306h236z" />
    <glyph glyph-name="Ccedilla" unicode="&#xc7;" horiz-adv-x="889" 
d="M371 -71l53 52q-166 6 -268.5 100t-102.5 279q0 196 112 288.5t314 92.5q73 0 135 -13.5t114.5 -42.5t83.5 -80t32 -120h-216q-15 108 -156 108q-99 0 -151 -62.5t-52 -165.5q0 -104 48.5 -170t148.5 -66q67 0 111 27.5t49 88.5h222q-3 -71 -30.5 -122t-76.5 -80.5
t-108 -43.5t-136 -17l-39 -37l2 -2q19 7 44 7q43 0 75 -22.5t32 -56.5q0 -82 -158 -82q-72 0 -128 19l22 53q50 -16 95 -16q47 0 47 31q0 15 -15 22.5t-35 7.5q-26 0 -44 -6z" />
    <glyph glyph-name="Egrave" unicode="&#xc8;" horiz-adv-x="815" 
d="M100 0v722h620v-148h-410v-134h388v-148h-388v-144h419v-148h-629zM411 913l112 -140h-158l-164 140h210z" />
    <glyph glyph-name="Eacute" unicode="&#xc9;" horiz-adv-x="815" 
d="M100 0v722h620v-148h-410v-134h388v-148h-388v-144h419v-148h-629zM305 773l112 140h210l-164 -140h-158z" />
    <glyph glyph-name="Ecircumflex" unicode="&#xca;" horiz-adv-x="815" 
d="M100 0v722h620v-148h-410v-134h388v-148h-388v-144h419v-148h-629zM181 773l129 140h207l130 -140h-158l-75 78l-75 -78h-158z" />
    <glyph glyph-name="Edieresis" unicode="&#xcb;" horiz-adv-x="815" 
d="M100 0v722h620v-148h-410v-134h388v-148h-388v-144h419v-148h-629zM202 773v140h158v-140h-158zM468 773v140h158v-140h-158z" />
    <glyph glyph-name="Igrave" unicode="&#xcc;" 
d="M80 0v722h210v-722h-210zM182 913l112 -140h-158l-164 140h210z" />
    <glyph glyph-name="Iacute" unicode="&#xcd;" 
d="M80 0v722h210v-722h-210zM76 773l112 140h210l-164 -140h-158z" />
    <glyph glyph-name="Icircumflex" unicode="&#xce;" 
d="M80 0v722h210v-722h-210zM-48 773l129 140h207l130 -140h-158l-75 78l-75 -78h-158z" />
    <glyph glyph-name="Idieresis" unicode="&#xcf;" 
d="M80 0v722h210v-722h-210zM-27 773v140h158v-140h-158zM239 773v140h158v-140h-158z" />
    <glyph glyph-name="Eth" unicode="&#xd0;" horiz-adv-x="963" 
d="M100 0v299h-82v128h82v295h401q169 0 260 -60q69 -45 109 -121.5t40 -172.5q0 -183 -115 -281q-102 -87 -309 -87h-386zM310 582v-155h174v-128h-174v-159h95q72 0 118.5 7.5t88.5 30t62 68.5t20 118q0 121 -64.5 169.5t-189.5 48.5h-130z" />
    <glyph glyph-name="Ntilde" unicode="&#xd1;" horiz-adv-x="963" 
d="M85 0v722h276l329 -520h2v520h186v-722h-278l-327 520h-2v-520h-186zM632 913h80q-7 -140 -127 -140q-32 0 -107.5 18.5t-91.5 18.5t-26 -5t-14.5 -11t-13.5 -21h-80q7 140 127 140q32 0 107.5 -18.5t91.5 -18.5t26 5t14.5 11t13.5 21z" />
    <glyph glyph-name="Ograve" unicode="&#xd2;" horiz-adv-x="964" 
d="M269 361q0 -105 50 -168.5t163 -63.5t163 63.5t50 168.5t-50 168.5t-163 63.5t-163 -63.5t-50 -168.5zM53 361q0 173 106 276.5t323 103.5t323 -103.5t106 -276.5t-106 -276.5t-323 -103.5t-323 103.5t-106 276.5zM479 913l112 -140h-158l-164 140h210z" />
    <glyph glyph-name="Oacute" unicode="&#xd3;" horiz-adv-x="964" 
d="M269 361q0 -105 50 -168.5t163 -63.5t163 63.5t50 168.5t-50 168.5t-163 63.5t-163 -63.5t-50 -168.5zM53 361q0 173 106 276.5t323 103.5t323 -103.5t106 -276.5t-106 -276.5t-323 -103.5t-323 103.5t-106 276.5zM373 773l112 140h210l-164 -140h-158z" />
    <glyph glyph-name="Ocircumflex" unicode="&#xd4;" horiz-adv-x="964" 
d="M269 361q0 -105 50 -168.5t163 -63.5t163 63.5t50 168.5t-50 168.5t-163 63.5t-163 -63.5t-50 -168.5zM53 361q0 173 106 276.5t323 103.5t323 -103.5t106 -276.5t-106 -276.5t-323 -103.5t-323 103.5t-106 276.5zM249 773l129 140h207l130 -140h-158l-75 78l-75 -78
h-158z" />
    <glyph glyph-name="Otilde" unicode="&#xd5;" horiz-adv-x="964" 
d="M269 361q0 -105 50 -168.5t163 -63.5t163 63.5t50 168.5t-50 168.5t-163 63.5t-163 -63.5t-50 -168.5zM53 361q0 173 106 276.5t323 103.5t323 -103.5t106 -276.5t-106 -276.5t-323 -103.5t-323 103.5t-106 276.5zM632 913h80q-7 -140 -127 -140q-32 0 -107.5 18.5
t-91.5 18.5t-26 -5t-14.5 -11t-13.5 -21h-80q7 140 127 140q32 0 107.5 -18.5t91.5 -18.5t26 5t14.5 11t13.5 21z" />
    <glyph glyph-name="Odieresis" unicode="&#xd6;" horiz-adv-x="964" 
d="M269 361q0 -105 50 -168.5t163 -63.5t163 63.5t50 168.5t-50 168.5t-163 63.5t-163 -63.5t-50 -168.5zM53 361q0 173 106 276.5t323 103.5t323 -103.5t106 -276.5t-106 -276.5t-323 -103.5t-323 103.5t-106 276.5zM270 773v140h158v-140h-158zM536 773v140h158v-140h-158
z" />
    <glyph glyph-name="multiply" unicode="&#xd7;" horiz-adv-x="600" 
d="M58 105l149 148l-149 148l94 94l148 -149l148 149l94 -94l-149 -148l149 -148l-94 -94l-148 149l-148 -149z" />
    <glyph glyph-name="Oslash" unicode="&#xd8;" horiz-adv-x="964" 
d="M305 215l306 344q-49 34 -129 34q-113 0 -163 -63.5t-50 -168.5q0 -91 36 -146zM91 -26l85 96q-123 98 -123 291q0 173 106 276.5t323 103.5q148 0 246 -50l94 105l51 -48l-85 -96q123 -98 123 -291q0 -173 -106 -276.5t-323 -103.5q-149 0 -246 51l-94 -106zM659 508
l-306 -345q50 -34 129 -34q113 0 163 63.5t50 168.5q0 92 -36 147z" />
    <glyph glyph-name="Ugrave" unicode="&#xd9;" horiz-adv-x="963" 
d="M872 722v-392q0 -183 -98 -266t-292 -83t-292.5 76.5t-98.5 244.5v420h210v-405q0 -188 181 -188q98 0 139 55.5t41 158.5v379h210zM479 913l112 -140h-158l-164 140h210z" />
    <glyph glyph-name="Uacute" unicode="&#xda;" horiz-adv-x="963" 
d="M872 722v-392q0 -183 -98 -266t-292 -83t-292.5 76.5t-98.5 244.5v420h210v-405q0 -188 181 -188q98 0 139 55.5t41 158.5v379h210zM373 773l112 140h210l-164 -140h-158z" />
    <glyph glyph-name="Ucircumflex" unicode="&#xdb;" horiz-adv-x="963" 
d="M872 722v-392q0 -183 -98 -266t-292 -83t-292.5 76.5t-98.5 244.5v420h210v-405q0 -188 181 -188q98 0 139 55.5t41 158.5v379h210zM249 773l129 140h207l130 -140h-158l-75 78l-75 -78h-158z" />
    <glyph glyph-name="Udieresis" unicode="&#xdc;" horiz-adv-x="963" 
d="M872 722v-392q0 -183 -98 -266t-292 -83t-292.5 76.5t-98.5 244.5v420h210v-405q0 -188 181 -188q98 0 139 55.5t41 158.5v379h210zM270 773v140h158v-140h-158zM536 773v140h158v-140h-158z" />
    <glyph glyph-name="Yacute" unicode="&#xdd;" horiz-adv-x="888" 
d="M339 0v257l-325 465h258l185 -308l183 308h234l-325 -465v-257h-210zM335 773l112 140h210l-164 -140h-158z" />
    <glyph glyph-name="Thorn" unicode="&#xde;" horiz-adv-x="815" 
d="M94 0v722h210v-118h193q128 0 206 -59t78 -178q0 -229 -308 -229h-169v-138h-210zM304 464v-186h129q64 0 98 20.5t34 71.5q0 94 -116 94h-145z" />
    <glyph glyph-name="germandbls" unicode="&#xdf;" horiz-adv-x="889" 
d="M267 0h-192v390q0 177 100.5 264t288.5 87q83 0 145.5 -14t95.5 -33.5t53 -45.5t25.5 -44.5t5.5 -36.5q0 -41 -22.5 -70t-54.5 -43.5t-64 -25.5t-54.5 -23.5t-22.5 -28.5q0 -19 29 -34.5t70.5 -29t83 -31t70.5 -51.5t29 -81q0 -43 -17.5 -75t-43 -49.5t-64 -27.5t-72 -13
t-75.5 -3q-68 0 -117.5 11.5t-74.5 27.5t-40 41t-18 43t-4 44h192q3 -33 19 -49q14 -14 49 -14q34 0 51 14.5t17 35.5q0 27 -28.5 44.5t-69 29t-81 26.5t-69 48.5t-28.5 83.5q0 39 16.5 68t41.5 44t54 27t54 19t41.5 19t16.5 28q0 24 -33.5 38.5t-96.5 14.5
q-206 0 -206 -248v-377z" />
    <glyph glyph-name="agrave" unicode="&#xe0;" horiz-adv-x="741" 
d="M472 219h-80q-89 0 -122.5 -20t-33.5 -56q0 -24 21.5 -38t61.5 -14q84 0 118.5 39t34.5 89zM265 354h-198q4 47 30.5 81t69 52t89.5 26t100 8q156 0 232 -47.5t76 -169.5v-192q0 -63 4 -112h-186q-4 34 -4 81h-2q-61 -100 -217 -100q-108 0 -167.5 42.5t-59.5 120.5
q0 173 300 173h140q0 58 -26.5 79t-86.5 21q-92 0 -94 -63zM368 722l112 -140h-158l-164 140h210z" />
    <glyph glyph-name="aacute" unicode="&#xe1;" horiz-adv-x="741" 
d="M472 219h-80q-89 0 -122.5 -20t-33.5 -56q0 -24 21.5 -38t61.5 -14q84 0 118.5 39t34.5 89zM265 354h-198q4 47 30.5 81t69 52t89.5 26t100 8q156 0 232 -47.5t76 -169.5v-192q0 -63 4 -112h-186q-4 34 -4 81h-2q-61 -100 -217 -100q-108 0 -167.5 42.5t-59.5 120.5
q0 173 300 173h140q0 58 -26.5 79t-86.5 21q-92 0 -94 -63zM262 582l112 140h210l-164 -140h-158z" />
    <glyph glyph-name="acircumflex" unicode="&#xe2;" horiz-adv-x="741" 
d="M472 219h-80q-89 0 -122.5 -20t-33.5 -56q0 -24 21.5 -38t61.5 -14q84 0 118.5 39t34.5 89zM265 354h-198q4 47 30.5 81t69 52t89.5 26t100 8q156 0 232 -47.5t76 -169.5v-192q0 -63 4 -112h-186q-4 34 -4 81h-2q-61 -100 -217 -100q-108 0 -167.5 42.5t-59.5 120.5
q0 173 300 173h140q0 58 -26.5 79t-86.5 21q-92 0 -94 -63zM138 582l129 140h207l130 -140h-158l-75 78l-75 -78h-158z" />
    <glyph glyph-name="atilde" unicode="&#xe3;" horiz-adv-x="741" 
d="M472 219h-80q-89 0 -122.5 -20t-33.5 -56q0 -24 21.5 -38t61.5 -14q84 0 118.5 39t34.5 89zM265 354h-198q4 47 30.5 81t69 52t89.5 26t100 8q156 0 232 -47.5t76 -169.5v-192q0 -63 4 -112h-186q-4 34 -4 81h-2q-61 -100 -217 -100q-108 0 -167.5 42.5t-59.5 120.5
q0 173 300 173h140q0 58 -26.5 79t-86.5 21q-92 0 -94 -63zM521 722h80q-7 -140 -127 -140q-32 0 -107.5 18.5t-91.5 18.5t-26 -5t-14.5 -11t-13.5 -21h-80q7 140 127 140q32 0 107.5 -18.5t91.5 -18.5t26 5t14.5 11t13.5 21z" />
    <glyph glyph-name="adieresis" unicode="&#xe4;" horiz-adv-x="741" 
d="M472 219h-80q-89 0 -122.5 -20t-33.5 -56q0 -24 21.5 -38t61.5 -14q84 0 118.5 39t34.5 89zM265 354h-198q4 47 30.5 81t69 52t89.5 26t100 8q156 0 232 -47.5t76 -169.5v-192q0 -63 4 -112h-186q-4 34 -4 81h-2q-61 -100 -217 -100q-108 0 -167.5 42.5t-59.5 120.5
q0 173 300 173h140q0 58 -26.5 79t-86.5 21q-92 0 -94 -63zM159 582v140h158v-140h-158zM425 582v140h158v-140h-158z" />
    <glyph glyph-name="aring" unicode="&#xe5;" horiz-adv-x="741" 
d="M472 219h-80q-89 0 -122.5 -20t-33.5 -56q0 -24 21.5 -38t61.5 -14q84 0 118.5 39t34.5 89zM265 354h-198q4 47 30.5 81t69 52t89.5 26t100 8q156 0 232 -47.5t76 -169.5v-192q0 -63 4 -112h-186q-4 34 -4 81h-2q-61 -100 -217 -100q-108 0 -167.5 42.5t-59.5 120.5
q0 173 300 173h140q0 58 -26.5 79t-86.5 21q-92 0 -94 -63zM229 650q0 105 142 105t142 -105q0 -59 -38 -82t-104 -23t-104 23t-38 82zM315 650q0 -24 15.5 -39.5t40.5 -15.5t40.5 15.5t15.5 39.5t-15.5 39.5t-40.5 15.5t-40.5 -15.5t-15.5 -39.5z" />
    <glyph glyph-name="ae" unicode="&#xe6;" horiz-adv-x="1185" 
d="M1141 213h-455q7 -128 139 -128q50 0 77 20.5t33 48.5h198q-5 -51 -36 -87t-78 -53.5t-92.5 -25t-92.5 -7.5q-198 0 -258 98q-78 -98 -277 -98q-128 0 -191.5 46t-63.5 117q0 173 300 173h152q0 56 -32.5 78t-94.5 22q-90 0 -92 -63h-198q4 47 30.5 81t69 52t88.5 26
t99 8q161 0 225 -81q50 46 102.5 63.5t126.5 17.5q161 0 241 -82t80 -226zM496 212h-105q-77 0 -110 -15.5t-33 -47.5q0 -25 23.5 -41.5t69.5 -16.5q78 0 116.5 38t38.5 83zM688 317h253q-6 45 -39.5 72.5t-84.5 27.5q-61 0 -92 -29t-37 -71z" />
    <glyph glyph-name="ccedilla" unicode="&#xe7;" horiz-adv-x="741" 
d="M286 -71l53 54q-56 3 -106.5 19t-94 46.5t-69 82t-25.5 118.5q0 73 28 127t76.5 85t107 45.5t126.5 14.5q56 0 104.5 -9.5t94 -30.5t75 -61t35.5 -96h-198q-15 87 -111 87q-63 0 -98.5 -44t-35.5 -115t33.5 -116t100.5 -45q49 0 79.5 25t31.5 72h204q-6 -53 -32 -92.5
t-66.5 -62.5t-86.5 -35t-100 -15l-39 -38l2 -2q19 7 44 7q43 0 75 -22.5t32 -56.5q0 -82 -158 -82q-72 0 -128 19l22 53q50 -16 95 -16q47 0 47 31q0 15 -15 22.5t-35 7.5q-26 0 -44 -6z" />
    <glyph glyph-name="egrave" unicode="&#xe8;" horiz-adv-x="741" 
d="M245 308h248q-3 109 -124 109q-105 0 -124 -109zM697 204h-455q6 -119 131 -119q39 0 63 11t32 23.5t14 33.5h204q-10 -39 -27 -68t-42 -47.5t-51 -30t-61.5 -17t-65 -7.5t-69.5 -2q-69 0 -125 13.5t-102.5 43t-72.5 81.5t-26 124q0 70 26 124.5t71.5 87.5t102.5 49.5
t123 16.5q176 0 252.5 -81t77.5 -236zM380 722l112 -140h-158l-164 140h210z" />
    <glyph glyph-name="eacute" unicode="&#xe9;" horiz-adv-x="741" 
d="M245 308h248q-3 109 -124 109q-105 0 -124 -109zM697 204h-455q6 -119 131 -119q39 0 63 11t32 23.5t14 33.5h204q-10 -39 -27 -68t-42 -47.5t-51 -30t-61.5 -17t-65 -7.5t-69.5 -2q-69 0 -125 13.5t-102.5 43t-72.5 81.5t-26 124q0 70 26 124.5t71.5 87.5t102.5 49.5
t123 16.5q176 0 252.5 -81t77.5 -236zM274 582l112 140h210l-164 -140h-158z" />
    <glyph glyph-name="ecircumflex" unicode="&#xea;" horiz-adv-x="741" 
d="M245 308h248q-3 109 -124 109q-105 0 -124 -109zM697 204h-455q6 -119 131 -119q39 0 63 11t32 23.5t14 33.5h204q-10 -39 -27 -68t-42 -47.5t-51 -30t-61.5 -17t-65 -7.5t-69.5 -2q-69 0 -125 13.5t-102.5 43t-72.5 81.5t-26 124q0 70 26 124.5t71.5 87.5t102.5 49.5
t123 16.5q176 0 252.5 -81t77.5 -236zM150 582l129 140h207l130 -140h-158l-75 78l-75 -78h-158z" />
    <glyph glyph-name="edieresis" unicode="&#xeb;" horiz-adv-x="741" 
d="M245 308h248q-3 109 -124 109q-105 0 -124 -109zM697 204h-455q6 -119 131 -119q39 0 63 11t32 23.5t14 33.5h204q-10 -39 -27 -68t-42 -47.5t-51 -30t-61.5 -17t-65 -7.5t-69.5 -2q-69 0 -125 13.5t-102.5 43t-72.5 81.5t-26 124q0 70 26 124.5t71.5 87.5t102.5 49.5
t123 16.5q176 0 252.5 -81t77.5 -236zM171 582v140h158v-140h-158zM437 582v140h158v-140h-158z" />
    <glyph glyph-name="igrave" unicode="&#xec;" 
d="M89 0v502h192v-502h-192zM182 722l112 -140h-158l-164 140h210z" />
    <glyph glyph-name="iacute" unicode="&#xed;" 
d="M89 0v502h192v-502h-192zM76 582l112 140h210l-164 -140h-158z" />
    <glyph glyph-name="icircumflex" unicode="&#xee;" 
d="M89 0v502h192v-502h-192zM-48 582l129 140h207l130 -140h-158l-75 78l-75 -78h-158z" />
    <glyph glyph-name="idieresis" unicode="&#xef;" 
d="M89 0v502h192v-502h-192zM-27 582v140h158v-140h-158zM239 582v140h158v-140h-158z" />
    <glyph glyph-name="eth" unicode="&#xf0;" horiz-adv-x="816" 
d="M576 774l58 -46l-124 -57q49 -28 92 -65t83 -86.5t63.5 -115t23.5 -136.5q0 -79 -29 -136t-81.5 -89t-116.5 -47t-143 -15q-164 0 -261 73.5t-97 184.5q0 124 90 193.5t217 69.5q98 0 169 -50l2 2q-29 40 -89.5 81.5t-99.5 53.5l-139 -64l-58 46l108 50q-47 17 -118 25
l135 110q117 -20 177 -46zM248 239q0 -64 45.5 -106t114.5 -42q72 0 116 41.5t44 106.5q0 69 -44 111t-116 42q-70 0 -115 -42.5t-45 -110.5z" />
    <glyph glyph-name="ntilde" unicode="&#xf1;" horiz-adv-x="815" 
d="M81 0v399q0 58 -4 103h186q4 -60 4 -90h2q81 109 213 109q130 0 191 -64.5t61 -170.5v-286h-192v257q0 63 -29.5 99.5t-92.5 36.5q-62 0 -104.5 -46t-42.5 -126v-221h-192zM558 722h80q-7 -140 -127 -140q-32 0 -107.5 18.5t-91.5 18.5t-26 -5t-14.5 -11t-13.5 -21h-80
q7 140 127 140q32 0 107.5 -18.5t91.5 -18.5t26 5t14.5 11t13.5 21z" />
    <glyph glyph-name="ograve" unicode="&#xf2;" horiz-adv-x="816" 
d="M248 251q0 -75 45 -117.5t115 -42.5t115 42.5t45 117.5t-45 117.5t-115 42.5t-115 -42.5t-45 -117.5zM44 251q0 48 18 93t57 86t113.5 66t175.5 25t175.5 -25t113.5 -66t57 -86t18 -93t-18 -93t-57 -86t-113.5 -66t-175.5 -25t-175.5 25t-113.5 66t-57 86t-18 93z
M405 722l112 -140h-158l-164 140h210z" />
    <glyph glyph-name="oacute" unicode="&#xf3;" horiz-adv-x="816" 
d="M248 251q0 -75 45 -117.5t115 -42.5t115 42.5t45 117.5t-45 117.5t-115 42.5t-115 -42.5t-45 -117.5zM44 251q0 48 18 93t57 86t113.5 66t175.5 25t175.5 -25t113.5 -66t57 -86t18 -93t-18 -93t-57 -86t-113.5 -66t-175.5 -25t-175.5 25t-113.5 66t-57 86t-18 93z
M299 582l112 140h210l-164 -140h-158z" />
    <glyph glyph-name="ocircumflex" unicode="&#xf4;" horiz-adv-x="816" 
d="M248 251q0 -75 45 -117.5t115 -42.5t115 42.5t45 117.5t-45 117.5t-115 42.5t-115 -42.5t-45 -117.5zM44 251q0 48 18 93t57 86t113.5 66t175.5 25t175.5 -25t113.5 -66t57 -86t18 -93t-18 -93t-57 -86t-113.5 -66t-175.5 -25t-175.5 25t-113.5 66t-57 86t-18 93z
M175 582l129 140h207l130 -140h-158l-75 78l-75 -78h-158z" />
    <glyph glyph-name="otilde" unicode="&#xf5;" horiz-adv-x="816" 
d="M248 251q0 -75 45 -117.5t115 -42.5t115 42.5t45 117.5t-45 117.5t-115 42.5t-115 -42.5t-45 -117.5zM44 251q0 48 18 93t57 86t113.5 66t175.5 25t175.5 -25t113.5 -66t57 -86t18 -93t-18 -93t-57 -86t-113.5 -66t-175.5 -25t-175.5 25t-113.5 66t-57 86t-18 93z
M558 722h80q-7 -140 -127 -140q-32 0 -107.5 18.5t-91.5 18.5t-26 -5t-14.5 -11t-13.5 -21h-80q7 140 127 140q32 0 107.5 -18.5t91.5 -18.5t26 5t14.5 11t13.5 21z" />
    <glyph glyph-name="odieresis" unicode="&#xf6;" horiz-adv-x="816" 
d="M248 251q0 -75 45 -117.5t115 -42.5t115 42.5t45 117.5t-45 117.5t-115 42.5t-115 -42.5t-45 -117.5zM44 251q0 48 18 93t57 86t113.5 66t175.5 25t175.5 -25t113.5 -66t57 -86t18 -93t-18 -93t-57 -86t-113.5 -66t-175.5 -25t-175.5 25t-113.5 66t-57 86t-18 93z
M196 582v140h158v-140h-158zM462 582v140h158v-140h-158z" />
    <glyph glyph-name="divide" unicode="&#xf7;" horiz-adv-x="600" 
d="M47 186v134h506v-134h-506zM211 41q0 37 26 63t63 26t63 -26t26 -63t-26 -63t-63 -26t-63 26t-26 63zM211 465q0 37 26 63t63 26t63 -26t26 -63t-26 -63t-63 -26t-63 26t-26 63z" />
    <glyph glyph-name="oslash" unicode="&#xf8;" horiz-adv-x="816" 
d="M277 153l213 239q-36 19 -82 19q-70 0 -115 -42.5t-45 -117.5q0 -60 29 -98zM539 349l-213 -238q37 -20 82 -20q70 0 115 42.5t45 117.5q0 58 -29 98zM101 -43l69 77q-66 38 -96 96t-30 121q0 48 18 93t57 86t113.5 66t175.5 25q103 0 175 -26l83 93l49 -43l-69 -77
q66 -38 96 -96t30 -121q0 -48 -18 -93t-57 -86t-113.5 -66t-175.5 -25q-100 0 -175 26l-83 -93z" />
    <glyph glyph-name="ugrave" unicode="&#xf9;" horiz-adv-x="815" 
d="M734 502v-399q0 -58 4 -103h-186q-4 60 -4 90h-2q-81 -109 -213 -109q-130 0 -191 64.5t-61 170.5v286h192v-257q0 -63 29.5 -99.5t92.5 -36.5q62 0 104.5 46t42.5 126v221h192zM405 722l112 -140h-158l-164 140h210z" />
    <glyph glyph-name="uacute" unicode="&#xfa;" horiz-adv-x="815" 
d="M734 502v-399q0 -58 4 -103h-186q-4 60 -4 90h-2q-81 -109 -213 -109q-130 0 -191 64.5t-61 170.5v286h192v-257q0 -63 29.5 -99.5t92.5 -36.5q62 0 104.5 46t42.5 126v221h192zM299 582l112 140h210l-164 -140h-158z" />
    <glyph glyph-name="ucircumflex" unicode="&#xfb;" horiz-adv-x="815" 
d="M734 502v-399q0 -58 4 -103h-186q-4 60 -4 90h-2q-81 -109 -213 -109q-130 0 -191 64.5t-61 170.5v286h192v-257q0 -63 29.5 -99.5t92.5 -36.5q62 0 104.5 46t42.5 126v221h192zM175 582l129 140h207l130 -140h-158l-75 78l-75 -78h-158z" />
    <glyph glyph-name="udieresis" unicode="&#xfc;" horiz-adv-x="815" 
d="M734 502v-399q0 -58 4 -103h-186q-4 60 -4 90h-2q-81 -109 -213 -109q-130 0 -191 64.5t-61 170.5v286h192v-257q0 -63 29.5 -99.5t92.5 -36.5q62 0 104.5 46t42.5 126v221h192zM196 582v140h158v-140h-158zM462 582v140h158v-140h-158z" />
    <glyph glyph-name="yacute" unicode="&#xfd;" horiz-adv-x="741" 
d="M164 -192l109 192l-258 502h224l144 -345l154 345h189l-358 -694h-204zM262 582l112 140h210l-164 -140h-158z" />
    <glyph glyph-name="thorn" unicode="&#xfe;" horiz-adv-x="815" 
d="M81 -192v914h192v-297h2q73 96 217 96q122 0 200.5 -73.5t78.5 -199.5q0 -123 -78 -195t-206 -72q-131 0 -214 85v-258h-192zM567 248q0 66 -37.5 111.5t-107.5 45.5q-66 0 -107.5 -41.5t-41.5 -108.5q0 -72 41.5 -115t107.5 -43q64 0 104.5 42.5t40.5 108.5z" />
    <glyph glyph-name="ydieresis" unicode="&#xff;" horiz-adv-x="741" 
d="M164 -192l109 192l-258 502h224l144 -345l154 345h189l-358 -694h-204zM159 582v140h158v-140h-158zM425 582v140h158v-140h-158z" />
    <glyph glyph-name="dotlessi" unicode="&#x131;" 
d="M89 0v502h192v-502h-192z" />
    <glyph glyph-name="Lslash" unicode="&#x141;" horiz-adv-x="741" 
d="M100 0v210l-72 -42v148l72 42v364h210v-243l196 113v-148l-196 -113v-183h408v-148h-618z" />
    <glyph glyph-name="lslash" unicode="&#x142;" 
d="M89 0v251l-62 -40v140l62 40v331h192v-207l62 40v-140l-62 -40v-375h-192z" />
    <glyph glyph-name="OE" unicode="&#x152;" horiz-adv-x="1333" 
d="M644 148v426q-63 6 -109 6q-266 0 -266 -227q0 -98 70 -154.5t153 -56.5q95 0 152 6zM1231 722v-148h-383v-134h362v-148h-362v-144h399v-148h-488q-61 0 -133 -3t-128 -3q-67 0 -126.5 9t-119.5 34.5t-102.5 65.5t-69.5 106.5t-27 152.5q0 120 57.5 204.5t151 123
t214.5 38.5q17 0 57.5 -1.5t48.5 -1.5q11 0 50 -1.5t56 -1.5h543z" />
    <glyph glyph-name="oe" unicode="&#x153;" horiz-adv-x="1185" 
d="M1141 213h-445q4 -63 38 -95.5t93 -32.5q48 0 75 20.5t33 48.5h198q-5 -50 -36 -86.5t-76.5 -54t-88 -25t-84.5 -7.5q-160 0 -235 85q-85 -85 -245 -85q-144 0 -234 73.5t-90 196.5t90 196.5t234 73.5q76 0 127 -17.5t108 -61.5q84 79 217 79q161 0 241 -82t80 -226z
M248 251q0 -70 35.5 -115t100.5 -45t100.5 45t35.5 115t-35.5 115t-100.5 45t-100.5 -45t-35.5 -115zM698 317h243q-6 45 -40 72.5t-85 27.5q-50 0 -82.5 -32t-35.5 -68z" />
    <glyph glyph-name="Scaron" unicode="&#x160;" horiz-adv-x="815" 
d="M55 234h210q1 -67 33 -90t109 -23q143 0 143 76q0 33 -31.5 50t-101.5 30l-103 20q-51 10 -89.5 23t-76 36t-58 60t-20.5 86q0 64 27.5 111.5t75.5 74.5t104.5 40t121.5 13q129 0 205.5 -27.5t106.5 -74.5t34 -123h-204q-4 50 -38 67.5t-91 17.5q-66 0 -99 -19.5
t-33 -51.5q0 -12 4.5 -21.5t16 -17t21 -12.5t30.5 -10.5t32.5 -8t38.5 -8.5l97 -20q56 -11 94.5 -25t74 -37.5t53.5 -61t18 -89.5q0 -58 -23 -102t-58.5 -69t-85.5 -41t-97 -21t-101 -5q-84 0 -146.5 14.5t-99 37.5t-58.5 57.5t-29 68t-7 75.5zM641 913l-129 -140h-207
l-130 140h158l75 -78l75 78h158z" />
    <glyph glyph-name="scaron" unicode="&#x161;" horiz-adv-x="667" 
d="M42 157h198q0 -38 24 -57q19 -15 63 -15q100 0 100 55q0 40 -84 53l-133 21q-152 24 -152 139q0 41 18.5 72t46 49t66 29t72.5 14.5t71 3.5q155 0 216.5 -41.5t64.5 -126.5h-192q-4 37 -25 51q-20 13 -68 13q-27 0 -49.5 -11.5t-22.5 -32.5q0 -24 23 -34.5t65 -17.5
l130 -21q81 -13 116 -49.5t35 -100.5q0 -169 -305 -169q-72 0 -124.5 12t-80 28t-44.5 42.5t-21.5 46t-7.5 47.5zM567 722l-129 -140h-207l-130 140h158l75 -78l75 78h158z" />
    <glyph glyph-name="Ydieresis" unicode="&#x178;" horiz-adv-x="888" 
d="M339 0v257l-325 465h258l185 -308l183 308h234l-325 -465v-257h-210zM232 773v140h158v-140h-158zM498 773v140h158v-140h-158z" />
    <glyph glyph-name="Zcaron" unicode="&#x17d;" horiz-adv-x="815" 
d="M51 0v186l451 388h-421v148h672v-192l-446 -382h457v-148h-713zM641 913l-129 -140h-207l-130 140h158l75 -78l75 78h158z" />
    <glyph glyph-name="zcaron" unicode="&#x17e;" horiz-adv-x="667" 
d="M52 0v148l302 236v2h-277v116h513v-134l-315 -250v-2h340v-116h-563zM567 722l-129 -140h-207l-130 140h158l75 -78l75 78h158z" />
    <glyph glyph-name="florin" unicode="&#x192;" horiz-adv-x="740" 
d="M663 731l-19 -110q-2 0 -26 2t-36 2q-50 0 -72 -23t-28 -67l-4 -33h156l-17 -122h-157l-62 -380q-11 -71 -33.5 -110t-73 -60.5t-138.5 -21.5q-37 0 -123 7l19 109q37 0 58.5 1t40 7.5t27 13t16.5 24t11.5 34t8.5 50.5l51 326h-149l18 122h149l8 58q16 109 70 145t172 36
q38 0 133 -10z" />
    <glyph glyph-name="circumflex" unicode="&#x2c6;" 
d="M-48 582l129 140h207l130 -140h-158l-75 78l-75 -78h-158z" />
    <glyph glyph-name="caron" unicode="&#x2c7;" 
d="M418 722l-129 -140h-207l-130 140h158l75 -78l75 78h158z" />
    <glyph glyph-name="uni02C9" unicode="&#x2c9;" 
d="M-29 603v98h428v-98h-428z" />
    <glyph glyph-name="breve" unicode="&#x2d8;" 
d="M-14 722h86q13 -34 42 -49q25 -13 71 -13t71 13q29 15 42 49h86q-6 -28 -13.5 -47t-27.5 -45.5t-60 -41t-98 -14.5t-98 14.5t-60 41t-27.5 45.5t-13.5 47z" />
    <glyph glyph-name="dotaccent" unicode="&#x2d9;" 
d="M106 582v140h158v-140h-158z" />
    <glyph glyph-name="ring" unicode="&#x2da;" 
d="M43 650q0 105 142 105t142 -105q0 -59 -38 -82t-104 -23t-104 23t-38 82zM129 650q0 -24 15.5 -39.5t40.5 -15.5t40.5 15.5t15.5 39.5t-15.5 39.5t-40.5 15.5t-40.5 -15.5t-15.5 -39.5z" />
    <glyph glyph-name="ogonek" unicode="&#x2db;" 
d="M271 -145l17 -49q-57 -17 -121 -17q-131 0 -131 77q0 40 39 76t96 58h97q-110 -65 -110 -114q0 -18 14 -29.5t39 -11.5q31 0 60 10z" />
    <glyph glyph-name="tilde" unicode="&#x2dc;" 
d="M335 722h80q-7 -140 -127 -140q-32 0 -107.5 18.5t-91.5 18.5t-26 -5t-14.5 -11t-13.5 -21h-80q7 140 127 140q32 0 107.5 -18.5t91.5 -18.5t26 5t14.5 11t13.5 21z" />
    <glyph glyph-name="hungarumlaut" unicode="&#x2dd;" 
d="M-78 582l112 140h210l-164 -140h-158zM230 582l112 140h210l-164 -140h-158z" />
    <glyph glyph-name="uni03A9" unicode="&#x3a9;" horiz-adv-x="958" 
d="M234 119v4q-69 39 -117.5 108.5t-48.5 163.5q0 139 114.5 232t297.5 93q184 0 296.5 -94t112.5 -232q0 -169 -170 -271v-4h185v-119h-367v93q86 48 134 112.5t48 161.5q0 96 -65.5 166t-171.5 70q-104 0 -173 -67t-69 -172q0 -91 50.5 -162.5t131.5 -108.5v-93h-369v119
h181z" />
    <glyph glyph-name="uni03BC" unicode="&#x3bc;" horiz-adv-x="815" 
d="M734 502v-399q0 -58 4 -103h-186q-4 60 -4 90h-2q-37 -50 -87 -79.5t-93 -29.5q-68 0 -91 39h-2v-212h-192v694h192v-257q0 -63 29.5 -99.5t92.5 -36.5q62 0 104.5 46t42.5 126v221h192z" />
    <glyph glyph-name="pi" unicode="&#x3c0;" horiz-adv-x="776" 
d="M744 410h-88v-232q0 -112 16 -178h-167q-20 23 -20 162v248h-169q-2 -104 -24.5 -231.5t-50.5 -178.5h-167q29 74 51 197.5t23 212.5q-89 0 -128 -11l-18 95q45 37 212 37h545z" />
    <glyph glyph-name="endash" unicode="&#x2013;" horiz-adv-x="500" 
d="M0 209v116h500v-116h-500z" />
    <glyph glyph-name="emdash" unicode="&#x2014;" horiz-adv-x="1000" 
d="M0 209v116h1000v-116h-1000z" />
    <glyph glyph-name="quoteleft" unicode="&#x2018;" 
d="M322 722l-82 -240h-192l128 240h146z" />
    <glyph glyph-name="quoteright" unicode="&#x2019;" 
d="M48 482l82 240h192l-128 -240h-146z" />
    <glyph glyph-name="quotesinglbase" unicode="&#x201a;" 
d="M48 -86l82 240h192l-128 -240h-146z" />
    <glyph glyph-name="quotedblleft" unicode="&#x201c;" horiz-adv-x="667" 
d="M345 722l-82 -240h-192l128 240h146zM596 722l-82 -240h-192l128 240h146z" />
    <glyph glyph-name="quotedblright" unicode="&#x201d;" horiz-adv-x="667" 
d="M71 482l82 240h192l-128 -240h-146zM322 482l82 240h192l-128 -240h-146z" />
    <glyph glyph-name="quotedblbase" unicode="&#x201e;" horiz-adv-x="667" 
d="M71 -86l82 240h192l-128 -240h-146zM322 -86l82 240h192l-128 -240h-146z" />
    <glyph glyph-name="dagger" unicode="&#x2020;" horiz-adv-x="668" 
d="M238 0v418h-187v140h187v164h192v-164h187v-140h-187v-418h-192z" />
    <glyph glyph-name="daggerdbl" unicode="&#x2021;" horiz-adv-x="668" 
d="M241 578v144h186v-144h190v-134h-190v-166h190v-134h-190v-144h-186v144h-190v134h190v166h-190v134h190z" />
    <glyph glyph-name="bullet" unicode="&#x2022;" horiz-adv-x="500" 
d="M69 361q0 75 53 128t128 53t128 -53t53 -128t-53 -128t-128 -53t-128 53t-53 128z" />
    <glyph glyph-name="ellipsis" unicode="&#x2026;" horiz-adv-x="1000" 
d="M74 0v154h186v-154h-186zM407 0v154h186v-154h-186zM740 0v154h186v-154h-186z" />
    <glyph glyph-name="perthousand" unicode="&#x2030;" horiz-adv-x="1333" 
d="M468 164q0 91 51.5 137t149.5 46t149.5 -46t51.5 -137q0 -89 -55 -136t-146 -47t-146 47t-55 136zM590 164q0 -109 79 -109t79 109q0 57 -19 83t-60 26t-60 -26t-19 -83zM1040 164q0 -109 79 -109t79 109q0 57 -19 83t-60 26t-60 -26t-19 -83zM918 164q0 91 51.5 137
t149.5 46t149.5 -46t51.5 -137q0 -89 -55 -136t-146 -47t-146 47t-55 136zM13 534q0 91 51.5 137t149.5 46t149.5 -46t51.5 -137q0 -89 -55 -136t-146 -47t-146 47t-55 136zM135 534q0 -109 79 -109t79 109q0 57 -19 83t-60 26t-60 -26t-19 -83zM109 -24l546 746h116
l-546 -746h-116z" />
    <glyph glyph-name="guilsinglleft" unicode="&#x2039;" 
d="M322 462l-117 -195l117 -195h-166l-122 195l122 195h166z" />
    <glyph glyph-name="guilsinglright" unicode="&#x203a;" 
d="M48 72l117 195l-117 195h166l122 -195l-122 -195h-166z" />
    <glyph glyph-name="fraction" unicode="&#x2044;" horiz-adv-x="222" 
d="M-165 -55l442 808h110l-442 -808h-110z" />
    <glyph glyph-name="Euro" unicode="&#x20ac;" horiz-adv-x="740" 
d="M727 510h-203q-6 33 -34.5 49t-66.5 16q-98 0 -126 -105h240l-35 -89h-219v-53h198l-35 -89h-151q8 -51 42.5 -83t85.5 -32q38 0 68 18.5t33 54.5h203q-3 -63 -28.5 -107t-72.5 -67t-101.5 -32.5t-125.5 -9.5q-118 0 -201.5 64t-108.5 194h-88l35 89h43v20q0 22 1 33h-79
l35 89h55q53 247 337 247q81 0 145 -18.5t108.5 -67t45.5 -121.5z" />
    <glyph glyph-name="afii61289" unicode="&#x2113;" horiz-adv-x="686" 
d="M581 211l74 -70q-99 -156 -287 -156q-181 0 -225 157q0 1 -0.5 4t-1.5 4q-9 -5 -28 -18t-31 -20l-47 81q14 9 49.5 31.5t53.5 34.5v222q0 151 60.5 221t168.5 70q96 0 146 -54t50 -132q0 -94 -65 -177.5t-200 -185.5l1 -13q4 -45 34.5 -71t75.5 -26q50 0 95.5 28.5
t76.5 69.5zM298 531v-176q141 127 141 228q0 40 -16 63.5t-48 23.5t-54.5 -33.5t-22.5 -105.5z" />
    <glyph glyph-name="trademark" unicode="&#x2122;" horiz-adv-x="1000" 
d="M132 310v320h-105v92h344v-92h-105v-320h-134zM839 310v230h-2l-75 -230h-104l-75 230h-2v-230h-122v412h170l80 -239h2l80 239h170v-412h-122z" />
    <glyph glyph-name="Omega" unicode="&#x2126;" horiz-adv-x="958" 
d="M234 119v4q-69 39 -117.5 108.5t-48.5 163.5q0 139 114.5 232t297.5 93q184 0 296.5 -94t112.5 -232q0 -169 -170 -271v-4h185v-119h-367v93q86 48 134 112.5t48 161.5q0 96 -65.5 166t-171.5 70q-104 0 -173 -67t-69 -172q0 -91 50.5 -162.5t131.5 -108.5v-93h-369v119
h181z" />
    <glyph glyph-name="estimated" unicode="&#x212e;" horiz-adv-x="887" 
d="M852 339h-662q-5 0 -5 -5v-200q0 -12 8 -23q107 -109 251 -109q77 0 145.5 32.5t117.5 89.5h59q-56 -66 -141 -104t-182 -38q-170 0 -289.5 107.5t-119.5 259.5t120 260t289 108t289 -108t120 -260v-10zM702 365v201q0 14 -10 24q-107 105 -248 105q-142 0 -250 -108
q-9 -11 -9 -25v-197q0 -7 5 -7h507q5 0 5 7z" />
    <glyph glyph-name="partialdiff" unicode="&#x2202;" horiz-adv-x="732" 
d="M121 623l-51 101q100 66 246 66q158 0 262.5 -109.5t104.5 -286.5q0 -179 -103.5 -294.5t-267.5 -115.5q-68 0 -123 24t-87 62t-48.5 79t-16.5 81q0 112 77 187.5t199 75.5q75 0 127.5 -34t76.5 -70h1q1 8 1 29q0 109 -61 180t-162 71q-97 0 -175 -46zM330 102h1
q65 0 111.5 52t56.5 120q-10 35 -50.5 69t-95.5 34q-64 0 -107 -41.5t-43 -103.5q0 -56 36 -93t91 -37z" />
    <glyph glyph-name="Delta" unicode="&#x2206;" horiz-adv-x="849" 
d="M28 0v81l296 645h204l292 -645v-81h-792zM211 121h413l-142 329q-54 129 -64 157h-6q-8 -24 -56 -144z" />
    <glyph glyph-name="product" unicode="&#x220f;" horiz-adv-x="906" 
d="M883 577h-135v-674h-160v674h-271v-674h-161v674h-135v130h862v-130z" />
    <glyph glyph-name="summation" unicode="&#x2211;" horiz-adv-x="721" 
d="M701 -97h-678v84l302 313l-285 308v99h636v-130h-404v-4l243 -259l-264 -277v-4h450v-130z" />
    <glyph glyph-name="minus" unicode="&#x2212;" horiz-adv-x="600" 
d="M47 186v134h506v-134h-506z" />
    <glyph glyph-name="uni2215" unicode="&#x2215;" horiz-adv-x="222" 
d="M-165 -55l442 808h110l-442 -808h-110z" />
    <glyph glyph-name="uni2219" unicode="&#x2219;" 
d="M65 241q0 49 35.5 84.5t84.5 35.5t84.5 -35.5t35.5 -84.5t-35.5 -84.5t-84.5 -35.5t-84.5 35.5t-35.5 84.5z" />
    <glyph glyph-name="radical" unicode="&#x221a;" horiz-adv-x="748" 
d="M775 841l-295 -997h-130l-200 448l-90 -36l-29 75l214 88l143 -354l28 -77h1q16 59 21 80l218 773h119z" />
    <glyph glyph-name="infinity" unicode="&#x221e;" horiz-adv-x="883" 
d="M830 295v-1q0 -88 -54.5 -141.5t-129.5 -53.5q-109 0 -206 126q-51 -62 -98 -94t-109 -32q-74 0 -127.5 53t-53.5 136q0 85 54.5 139t136.5 54q60 0 109 -32t97 -92q55 62 82 82q56 43 121 42q76 -1 127 -52t51 -134zM242 180h2q29 0 60.5 19.5t47 36t44.5 49.5
q-25 33 -35 45.5t-31.5 33.5t-43 29t-47.5 8q-44 0 -73 -31.5t-29 -81.5q0 -44 30 -76t75 -32zM643 401h-1q-16 0 -32.5 -6t-27.5 -12.5t-28 -22t-23 -22t-22.5 -26t-18.5 -21.5q51 -63 85.5 -87t72.5 -24q44 0 70 33.5t26 73.5q0 51 -28 82.5t-73 31.5z" />
    <glyph glyph-name="integral" unicode="&#x222b;" horiz-adv-x="447" 
d="M442 863l-17 -95q-22 9 -47 9q-44 0 -64 -28q-31 -39 -31 -167q0 -80 10 -234.5t10 -246.5q0 -131 -45 -199q-49 -80 -154 -80q-61 0 -99 18l19 99q31 -12 56 -12q37 0 58 24q37 40 37 154q0 93 -10.5 251.5t-10.5 242.5q0 160 75 231q48 47 139 47q44 0 74 -14z" />
    <glyph glyph-name="approxequal" unicode="&#x2248;" horiz-adv-x="683" 
d="M580 481l58 -59q-76 -109 -171 -109q-37 0 -65 10t-75 35q-68 34 -105 34t-66 -20t-60 -58l-57 59q29 46 81 77.5t105 31.5q61 0 129 -39q40 -24 60 -32t48 -8q61 0 118 78zM580 270l58 -60q-76 -109 -173 -109q-25 0 -49.5 7t-40.5 14t-48 24q-64 35 -104 35
q-38 0 -67 -20.5t-60 -58.5l-57 60q29 47 81 78t106 31q57 0 127 -39q6 -3 24.5 -13.5t27 -14.5t24.5 -8.5t32 -4.5q34 0 60.5 18.5t58.5 60.5z" />
    <glyph glyph-name="notequal" unicode="&#x2260;" horiz-adv-x="683" 
d="M502 543l-45 -96h168v-87h-208l-68 -144h276v-88h-316l-63 -132l-72 34l47 98h-163v88h203l68 144h-271v87h311l61 130z" />
    <glyph glyph-name="lessequal" unicode="&#x2264;" horiz-adv-x="683" 
d="M624 122l-563 241v93l562 240v-97l-464 -188v-2l465 -191v-96zM625 -7h-568v90h568v-90z" />
    <glyph glyph-name="greaterequal" unicode="&#x2265;" horiz-adv-x="683" 
d="M61 696l563 -241v-93l-563 -240v96l464 190v2l-464 189v97zM619 -7h-561v90h561v-90z" />
    <glyph glyph-name="lozenge" unicode="&#x25ca;" horiz-adv-x="748" 
d="M691 353l-256 -404h-124l-255 404l255 404h124zM550 349l-157 259q-17 29 -21 39h-2q-6 -12 -22 -39l-152 -253l157 -259q13 -21 21 -38h3q7 16 20 38z" />
    </font>
</defs>
</svg>
