<?xml version="1.0" encoding="utf-8"?>
<!-- Generator: Adobe Illustrator 18.0.0, SVG Export Plug-In . SVG Version: 6.00 Build 0)  -->
<!DOCTYPE svg PUBLIC "-//W3C//DTD SVG 1.1//EN" "http://www.w3.org/Graphics/SVG/1.1/DTD/svg11.dtd">
<svg version="1.1" id="Calque_1" xmlns="http://www.w3.org/2000/svg" xmlns:xlink="http://www.w3.org/1999/xlink" x="0px" y="0px"
	 viewBox="-146 -24.7 300 62.7" enable-background="new -146 -24.7 300 62.7" xml:space="preserve">
<g>
	<path fill="#FFFFFF" d="M-84.8,2.2h-22.8c-0.2,0-0.3,0.1-0.3,0.3c0,2.2-0.7,7.5-7,7.5c-4.8,0-7-4-7-12.6c0-9.3,4-11.3,7.3-11.3
		c2.1,0,3.6,0.7,4.8,2.1c1,1.2,1.6,3,1.9,5.4c0,0.2,0.2,0.3,0.3,0.3h22.3c0.2,0,0.3-0.1,0.3-0.3c0-8.3-5.1-18.2-29.1-18.2
		c-21.5,0-31.9,7.4-31.9,22.6c0,14.9,10.4,22.8,30.1,22.8c9.3,0,17.1-1.5,22.6-4.3c5.8-3,8.7-7.5,8.8-14c0-0.1,0-0.2-0.1-0.2
		C-84.7,2.2-84.8,2.2-84.8,2.2z"/>
	<path fill="#FFFFFF" d="M-21.7-6.6c0-15.1-12.5-18.2-31.3-18.2c-5.2,0-12.7,0.5-18.7,2.8c-5.5,2.1-8.3,5.6-8.6,11.2
		c0,0.1,0,0.2,0.1,0.2c0.1,0.1,0.1,0.1,0.2,0.1h20.4c0.2,0,0.3-0.1,0.3-0.3c0.3-1.9,1.4-4.5,7.3-4.5c5.5,0,6.7,3.4,6.7,6.3v2h-6.3
		C-67-7-82.8-5.2-82.8,8.2c0,5.6,2.2,9.3,6.5,10.9c3.6,1.4,9,1.6,13.8,1.6c9.1,0,14.8-2.1,19-7l0.4,5.2c0,0.2,0.2,0.3,0.3,0.3h21.3
		c0.1,0,0.2,0,0.2-0.1c0.1-0.1,0.1-0.2,0.1-0.3c-0.4-2.3-0.6-3.9-0.6-5.5V-6.6z M-45.3,1.7v1c0,5.1-3.8,8.6-9.4,8.6
		c-4.1,0-6.5-2.2-6.5-4.4c0-3.4,4.6-5.2,13.2-5.2H-45.3z"/>
	<path fill="#FFFFFF" d="M25.3-24.7c-9.4,0.4-15.2,0.6-18.6,10l-0.5-8.1c0-0.2-0.2-0.3-0.3-0.3H-17c-0.1,0-0.2,0-0.2,0.1
		c-0.1,0.1-0.1,0.2-0.1,0.3c0.5,3.6,0.5,9.1,0.5,15.5v26.1c0,0.2,0.1,0.3,0.3,0.3H7.4c0.2,0,0.3-0.1,0.3-0.3V4.1
		C7.7-4.3,11.6-8,20.9-8h4.5c0.2,0,0.3-0.1,0.3-0.3v-16.1c0-0.1,0-0.2-0.1-0.2C25.5-24.7,25.4-24.7,25.3-24.7z"/>
	<path fill="#FFFFFF" d="M87.7,2.2H65.6c-0.2,0-0.3,0.1-0.3,0.3c0,2.2-0.7,7.5-7,7.5c-4.8,0-7-4-7-12.6c0-9.3,4-11.3,7.3-11.3
		c2.1,0,3.6,0.7,4.8,2.1c1,1.2,1.6,3,1.9,5.4c0,0.2,0.2,0.3,0.3,0.3h21.6c0.2,0,0.3-0.1,0.3-0.3c0-15.1-15.5-18.2-28.5-18.2
		c-21.5,0-31.9,7.4-31.9,22.6c0,14.9,10.4,22.8,30.1,22.8c9.3,0,17.1-1.5,22.6-4.3c5.5-2.8,8.1-7.1,8.1-14c0-0.1,0-0.2-0.1-0.2
		C87.9,2.2,87.8,2.2,87.7,2.2z"/>
	<path fill="#FFFFFF" d="M154-23c-0.1-0.1-0.2-0.2-0.3-0.2h-25c-0.1,0-0.2,0.1-0.3,0.2L118.2-1.8L107.1-23c-0.1-0.1-0.2-0.2-0.3-0.2
		H83.6c-0.1,0-0.2,0.1-0.3,0.2c-0.1,0.1-0.1,0.2,0,0.3l24.1,40.2l-10.6,20c-0.1,0.1,0,0.2,0,0.3c0.1,0.1,0.2,0.2,0.3,0.2h25.2
		c0.1,0,0.3-0.1,0.3-0.2c3.8-9.7,7.8-17.8,16.3-33.4l15-27C154-22.8,154-22.9,154-23z"/>
</g>
</svg>
