<?xml version="1.0" encoding="utf-8"?>
<!-- Generator: Adobe Illustrator 18.0.0, SVG Export Plug-In . SVG Version: 6.00 Build 0)  -->
<!DOCTYPE svg PUBLIC "-//W3C//DTD SVG 1.1//EN" "http://www.w3.org/Graphics/SVG/1.1/DTD/svg11.dtd">
<svg version="1.1" id="Calque_1" xmlns="http://www.w3.org/2000/svg" xmlns:xlink="http://www.w3.org/1999/xlink" x="0px" y="0px"
	 viewBox="0 0 300 62" style="enable-background:new 0 0 300 62;" xml:space="preserve">
<style type="text/css">
	.st0{fill:#FFFFFF;}
</style>
<g>
	<path class="st0" d="M41.9,16.9c-8.6,0-14.6,2.6-18.2,8c0,0,0,0,0,0l-0.3-6.3c0-0.1-0.1-0.2-0.2-0.2H0.2c0,0-0.1,0-0.1,0.1
		c0,0,0,0.1,0,0.1c0.4,5.5,0.5,11.3,0.5,16.1v25c0,0.1,0.1,0.2,0.2,0.2H24c0.1,0,0.2-0.1,0.2-0.2V39.3c0-6.6,2.4-9.6,7.5-9.6
		c4.3,0,6.2,2.5,6.2,8v22.1c0,0.1,0.1,0.2,0.2,0.2h23.4c0.1,0,0.2-0.1,0.2-0.2V35.2C61.6,18.7,47.8,16.9,41.9,16.9z"/>
	<path class="st0" d="M96.4,16.9c-21.3,0-31.3,7.1-31.3,22.3s9.9,22.3,31.3,22.3c21.3,0,31.3-7.1,31.3-22.3S117.8,16.9,96.4,16.9z
		 M104.9,39.2c0,9.9-4.6,11.9-8.5,11.9c-3.9,0-8.5-2.1-8.5-11.9s4.6-11.9,8.5-11.9C100.3,27.3,104.9,29.4,104.9,39.2z"/>
	<path class="st0" d="M172,16.9c-7.6,0-13.2,1.8-16.9,5.6c0,0,0,0,0,0V0.6c0-0.1-0.1-0.2-0.2-0.2h-23.4c-0.1,0-0.2,0.1-0.2,0.2v59.2
		c0,0.1,0.1,0.2,0.2,0.2h22.1c0.1,0,0.2-0.1,0.2-0.2l0.3-4.7c0,0,0,0,0,0c5.3,5.3,10.4,6.4,16.9,6.4c7.4,0,13.2-1.9,17.2-5.7
		c4.1-3.8,6.1-9.4,6.1-16.5c0-7.2-2-12.8-5.8-16.7C184.7,18.9,179.1,16.9,172,16.9z M162.7,28c6.6,0,8,6.1,8,11.2
		c0,7.6-2.6,11.2-8.1,11.2c-5.4,0-8-3.7-8-11.2C154.6,32.4,157.8,28,162.7,28z"/>
	<path class="st0" d="M239.6,16.9c-9.3,0.4-15,0.6-18.3,10.4c0,0,0,0,0,0l-0.5-8.7c0-0.1-0.1-0.2-0.2-0.2h-22.4c0,0-0.1,0-0.1,0.1
		c0,0,0,0.1,0,0.1c0.5,3.6,0.5,9,0.5,15.3v25.8c0,0.1,0.1,0.2,0.2,0.2H222c0.1,0,0.2-0.1,0.2-0.2V45.3c0-8.7,4.1-12.8,13-12.8h4.4
		c0.1,0,0.2-0.1,0.2-0.2V17.1c0,0,0-0.1,0-0.1C239.7,16.9,239.6,16.9,239.6,16.9z"/>
	<path class="st0" d="M299.5,54.3V34.7c0-6.7-2.3-11.1-7.2-13.9c-4.6-2.7-11.8-3.9-22.4-3.9c-5,0-12.1,0.5-17.7,2.7
		c-5.9,2.3-9,6-9.3,10.9c0,0,0,0.1,0,0.1c0,0,0.1,0.1,0.1,0.1l20.6,0c0.1,0,0.2-0.1,0.2-0.2c0.5-3.1,2.8-4.6,7.1-4.6
		c2.4,0,6.5,0.8,6.5,6.4v2.1c0,0,0,0,0,0h-6.1c-14.3,0-30.7,1.7-30.7,14.8c0,4.9,2.7,8.8,7.3,10.7c3.4,1.4,8.5,1.6,13,1.6
		c8,0,13.8-1.1,18.1-6.5c0,0,0,0,0,0l0.4,4.8c0,0.1,0.1,0.2,0.2,0.2h20.2c0,0,0.1,0,0.1-0.1c0,0,0-0.1,0-0.1
		C299.6,57.6,299.5,55.9,299.5,54.3z M268.2,52.5c-4,0-5.8-2.3-5.8-4.6c0-3.7,4-5.4,12.3-5.4h2.7c0,0,0,0,0,0v1.2
		C277.4,48.9,273.6,52.5,268.2,52.5z"/>
</g>
</svg>
